<svg xmlns="http://www.w3.org/2000/svg" xmlns:xlink="http://www.w3.org/1999/xlink" width="902.14" height="708.133" viewBox="0 0 902.14 708.133"><defs><style>.a,.b,.f{fill:#6c63ff;}.a,.h{opacity:0.1;}.c{fill:#464353;}.d,.e,.j,.l,.n{fill:#fff;}.e{stroke:#fff;}.e,.j,.k,.l,.m,.n,.o{stroke-miterlimit:10;}.f{opacity:0.5;}.g{fill:#504f60;}.i{fill:#3f3d56;}.j,.k,.l,.m,.n{stroke:#6c63ff;}.j,.m,.n,.o{stroke-width:3px;}.k,.m,.o{fill:none;}.k,.l,.n{stroke-linecap:round;}.k,.l{stroke-width:2px;}.o{stroke:#343434;}.p{fill:#33313f;}.q{fill:#65617d;}.r{fill:url(#a);}.s{fill:#db8b8b;}.t{fill:#2e3037;}.u{fill:#35323e;}</style><linearGradient id="a" x1="14.929" y1="1" x2="14.929" gradientUnits="objectBoundingBox"><stop offset="0" stop-color="gray" stop-opacity="0.251"/><stop offset="0.54" stop-color="gray" stop-opacity="0.122"/><stop offset="1" stop-color="gray" stop-opacity="0.102"/></linearGradient></defs><g transform="translate(-917.953 -236.079)"><g transform="translate(917.953 236.079)"><ellipse class="a" cx="189.165" cy="28.673" rx="189.165" ry="28.673" transform="translate(87.007 625.787)"/><path class="a" d="M317.874,51.3c30-26.443,77.107-31.859,119.99-29.725,134.669,6.627,256.22,70.879,361.4,143.574,38.072,26.324,75.554,54.679,100.261,90.926,50.306,73.77,35.38,175.975-34.567,236.746-23.8,20.709-52.648,36.535-82.261,50.585-52.663,24.986-109.484,45.041-169.253,50.752-42.62,4.07-85.765.757-128.138-4.922-118.389-15.866-234.6-50.975-331.99-111.006-42.715-26.3-82.977-59.067-100.588-101.671s-6.372-96.589,37.283-121.8c18.04-10.434,39.609-15.133,60.724-19.57,31.063-6.507,62.667-12.927,90.719-26.156,28.968-13.676,63.273-40.111,57.538-70.361C292.833,106.2,287.879,77.693,317.874,51.3Z" transform="translate(-44.761 -21.152)"/><path class="b" d="M955.411,96.388c5.384,35.491-9.6,67.2-9.6,67.2S922.1,137.758,916.7,102.266c-3.019-19.912.366-38.613,3.919-51.214a8.761,8.761,0,0,1,15.842-2.389C943.607,59.623,952.392,76.484,955.411,96.388Z" transform="translate(-221.979 -25.925)"/><path class="b" d="M1082.29,180.64a61.257,61.257,0,0,1,15.81,2c8.69,2.23,8.825,14.536.183,16.957a61.449,61.449,0,0,1-15.762,2.342c-19.538.215-35.491-10.267-35.491-10.267S1062.753,180.855,1082.29,180.64Z" transform="translate(-248.74 -53.611)"/><path class="b" d="M1016.691,107.638c-18.184,19.984-22.031,46.1-22.031,46.1s25.631-6.292,43.807-26.284a90.492,90.492,0,0,0,17.092-28.522,8.761,8.761,0,0,0-12.043-10.991A89.978,89.978,0,0,0,1016.691,107.638Z" transform="translate(-238.082 -34.563)"/><rect class="c" width="409.392" height="492.999" rx="19.8" transform="translate(407.376 69.308)"/><rect class="a" width="338.76" height="393.534" transform="translate(442.692 119.04)"/><circle class="d" cx="14.416" cy="14.416" r="14.416" transform="translate(597.656 524.108)"/><path class="d" d="M811.49,149.44a6.81,6.81,0,1,1,6.81-6.81A6.81,6.81,0,0,1,811.49,149.44Z" transform="translate(-199.418 -44.489)"/><path class="d" d="M811.378,136.116a6.412,6.412,0,1,1-6.412,6.412,6.412,6.412,0,0,1,6.412-6.412m0-.8a7.168,7.168,0,1,0,5.083,2.114A7.208,7.208,0,0,0,811.378,135.32Z" transform="translate(-199.306 -44.387)"/><rect class="e" width="70.258" height="95.514" rx="4.3" transform="translate(458.43 240.95)"/><rect class="f" width="57.084" height="30.306" rx="7.14" transform="translate(465.017 265.02)"/><rect class="b" width="33.253" height="4.707" rx="1.69" transform="translate(476.933 307.687)"/><rect class="e" width="70.258" height="95.514" rx="4.3" transform="translate(577.21 240.95)"/><rect class="f" width="33.667" height="17.873" rx="1.46" transform="translate(595.688 255.868)"/><rect class="b" width="42.978" height="4.707" rx="1.69" transform="translate(590.766 290.491)"/><rect class="b" width="42.978" height="4.707" rx="1.69" transform="translate(590.766 299.269)"/><rect class="e" width="70.258" height="95.514" rx="4.3" transform="translate(695.456 173.098)"/><rect class="f" width="45.742" height="21.346" rx="1.46" transform="translate(707.714 187.92)"/><rect class="f" width="45.742" height="21.346" rx="1.46" transform="translate(707.714 218.943)"/><rect class="b" width="15.006" height="6.587" rx="3.293" transform="translate(704.058 257.493)"/><rect class="b" width="15.006" height="6.587" rx="3.293" transform="translate(723.086 257.493)"/><rect class="b" width="15.006" height="6.587" rx="3.293" transform="translate(742.114 257.493)"/><rect class="e" width="70.258" height="95.514" rx="4.3" transform="translate(695.288 308.802)"/><rect class="f" width="20.995" height="21.346" rx="1.46" transform="translate(700.712 319.969)"/><rect class="b" width="42.978" height="4.707" rx="1.69" transform="translate(708.932 354.313)"/><rect class="b" width="42.978" height="4.707" rx="1.69" transform="translate(708.932 363.831)"/><rect class="b" width="42.978" height="4.707" rx="1.69" transform="translate(708.932 373.349)"/><path class="e" d="M750.807,379.253l-1.075.518-8.714,4.19-.8.374a.43.43,0,0,1-.581-.231.468.468,0,0,1,0-.159v-2.477a.422.422,0,0,0-.422-.422H718.04a.43.43,0,0,1-.43-.422v-3.5a.43.43,0,0,1,.43-.422h21.2a.43.43,0,0,0,.422-.43v-2.533a.518.518,0,0,1,0-.159.43.43,0,0,1,.582-.223l.8.374,8.69,4.229,1.075.526a.422.422,0,0,1,0,.765Z" transform="translate(-181.698 -92.824)"/><path class="e" d="M899.565,353.635l-.7.964-5.7,7.774-.5.693a.438.438,0,0,1-.621.072.384.384,0,0,1-.1-.127l-1.163-2.182a.438.438,0,0,0-.581-.183l-18.717,9.964a.422.422,0,0,1-.573-.175l-1.641-3.1a.422.422,0,0,1,.175-.573l18.717-9.948a.422.422,0,0,0,.175-.573L887.148,354a.28.28,0,0,1-.048-.151.414.414,0,0,1,.406-.47h.852l9.653-.35,1.195-.04a.422.422,0,0,1,.358.645Z" transform="translate(-212.552 -88.687)"/><path class="e" d="M899.432,400.832H887.748a.422.422,0,0,1-.422-.454.359.359,0,0,1,.04-.151l1.067-2.238a.422.422,0,0,0-.2-.565l-19.116-9.175a.43.43,0,0,1-.2-.573l1.513-3.146a.414.414,0,0,1,.565-.2l19.116,9.183a.438.438,0,0,0,.573-.2l1.1-2.286a.414.414,0,0,1,.709-.08l.534.661,6,7.582.741.94a.422.422,0,0,1-.335.7Z" transform="translate(-212.483 -95.056)"/><path class="g" d="M421.39,606.558l-.064,2.334-4.062,143.423H410.43l3.353-143.423.064-2.692Z" transform="translate(-83.523 -123.366)"/><path class="h" d="M421.39,606.558l-.064,2.334-4.062,143.423H410.43l3.353-143.423.064-2.692Z" transform="translate(-83.523 -123.366)"/><path class="g" d="M452.074,757.444l-5.113-.016-76.024-.159-4.046-.008,2.15-6.651h82.492Z" transform="translate(-74.662 -152.756)"/><path class="h" d="M422.246,606.558l-.064,2.334H414.64l.064-2.692Z" transform="translate(-84.38 -123.366)"/><rect class="g" width="12.672" height="4.763" transform="translate(328.078 479.688)"/><path class="h" d="M371.613,750.61l-.677,6.659-4.046-.008,2.15-6.651Z" transform="translate(-74.662 -152.756)"/><path class="g" d="M380.182,602.14l-.215,2.063L363.106,770.532l-7.726-.358L373.15,604.2l.2-1.888Z" transform="translate(-72.319 -122.54)"/><path class="h" d="M472.356,757.444l-5.113-.016-.693-6.818h5.265Z" transform="translate(-94.944 -152.756)"/><path class="g" d="M477.662,770.174l-7.734.358L453.067,604.2l-.207-2.063,6.826.175.2,1.888Z" transform="translate(-92.158 -122.54)"/><rect class="d" width="170.376" height="163.367" transform="translate(248.016 315.596)"/><rect class="d" width="245.317" height="163.367" rx="4.13" transform="translate(210.645 315.596)"/><path class="g" d="M465.573,347.951V387.4H458.93v-39.45a3.321,3.321,0,1,1,6.643,0Z" transform="translate(-129.052 -86.986)"/><rect class="h" width="6.651" height="3.592" transform="translate(329.878 296.823)"/><path class="g" d="M467.52,396.793v13.03H455.66v-13.03a1.593,1.593,0,0,1,1.593-1.593h8.626a1.593,1.593,0,0,1,1.641,1.593Z" transform="translate(-128.386 -97.277)"/><circle class="h" cx="2.517" cy="2.517" r="2.517" transform="translate(330.683 303.649)"/><circle class="i" cx="2.517" cy="2.517" r="2.517" transform="translate(330.683 303.108)"/><rect class="h" width="11.86" height="1.617" transform="translate(327.274 310.929)"/><rect class="h" width="21.569" height="3.592" transform="translate(322.415 313.088)"/><rect class="g" width="21.569" height="3.592" transform="translate(322.415 312.004)"/><path class="h" d="M363.413,596h88.872a4.779,4.779,0,0,1,4.779,4.779H358.65A4.779,4.779,0,0,1,363.413,596Z" transform="translate(-72.985 -121.29)"/><path class="h" d="M377.889,602.315l6.834-.175-.215,2.063H377.69Z" transform="translate(-76.86 -122.54)"/><rect class="h" width="12.672" height="1.975" transform="translate(328.078 479.688)"/><path class="h" d="M459.885,604.2h-6.818l-.207-2.063,6.826.175Z" transform="translate(-92.158 -122.54)"/><path class="g" d="M363.413,597.4h88.872a4.779,4.779,0,0,1,4.779,4.779H358.65a4.779,4.779,0,0,1,4.779-4.779Z" transform="translate(-72.985 -121.575)"/><path class="j" d="M554.083,441.476a1.187,1.187,0,0,1,1.362,1.306c-1.155,11.151-.414,22.572.836,33.7.581,5.09,1.37,10.474,3.624,14.249a1.2,1.2,0,0,1-.159,1.481,3.186,3.186,0,0,1-2.214.661l-35.547.2a1.187,1.187,0,0,1-1.163-1.466c2.859-12.186,2.246-25.487,1.1-38.128-.566-6.221-.892-9.558,3.751-10,4.779-.43,9.558-.629,14.337-1.027C541.156,442.361,550.347,442.09,554.083,441.476Z" transform="translate(-141.641 -106.693)"/><path class="j" d="M526.9,533.166a1.187,1.187,0,0,0-1.362,1.306c1.155,11.151.414,22.572-.844,33.7-.573,5.089-1.362,10.474-3.616,14.257a1.187,1.187,0,0,0,.159,1.473,3.186,3.186,0,0,0,2.214.661L559,584.77a1.2,1.2,0,0,0,1.163-1.473c-2.859-12.186-2.246-25.487-1.1-38.128.566-6.221.892-9.558-3.751-10s-9.558-.629-14.337-1.027C539.832,534.05,530.64,533.78,526.9,533.166Z" transform="translate(-141.663 -125.353)"/><path class="k" d="M539.6,558.9a105.426,105.426,0,0,1,12.393.151,1.171,1.171,0,0,1,1.051,1.035l.39,3.258a.462.462,0,0,1-.1.422.439.439,0,0,1-.3.08c-1.736.048-3.473-.151-5.2,0-1.075.088-2.143.295-3.186.414a38.025,38.025,0,0,1-5.3.1,26.725,26.725,0,0,1-7.383-.908s.143-2.7.143-2.955c0-1.258-.04-1.37,1.258-1.4Z" transform="translate(-143.915 -130.57)"/><path class="k" d="M539.6,575.962a103.723,103.723,0,0,0,12.393-.159,1.171,1.171,0,0,0,1.051-1.035l.39-3.25a.478.478,0,0,0-.1-.43.438.438,0,0,0-.3-.08c-1.736-.048-3.473.159-5.2,0-1.075-.08-2.143-.287-3.186-.406a36.836,36.836,0,0,0-5.3-.1,26.727,26.727,0,0,0-7.383.908s.143,2.692.143,2.955c0,1.258-.04,1.362,1.258,1.4Z" transform="translate(-143.915 -132.944)"/><path class="k" d="M539.6,584.561a103.71,103.71,0,0,1,12.393.159,1.171,1.171,0,0,1,1.051,1.035l.39,3.25a.478.478,0,0,1-.1.43.438.438,0,0,1-.3.08c-1.736.048-3.473-.159-5.2,0-1.075.08-2.143.295-3.186.414a38.024,38.024,0,0,1-5.3.088,26.722,26.722,0,0,1-7.383-.9s.143-2.7.143-2.963c0-1.258-.04-1.362,1.258-1.394Z" transform="translate(-143.915 -135.792)"/><path class="l" d="M546.176,499a5.265,5.265,0,0,1,.35,2.772.415.415,0,0,1-.056.215.43.43,0,0,1-.334.119l-7.567.295s.422-2.23.478-2.389c.263-.908.924-.669,1.776-.717Z" transform="translate(-145.26 -118.403)"/><path class="l" d="M560.524,499a5.265,5.265,0,0,1,.343,2.772.407.407,0,0,1-.048.215.446.446,0,0,1-.335.12l-7.575.295s.43-2.23.486-2.389c.255-.908.916-.669,1.776-.717Z" transform="translate(-148.178 -118.403)"/><path class="m" d="M550.708,451.259l1.02,8.761a2.389,2.389,0,0,1-2.174,2.636,113.74,113.74,0,0,1-19.418-.127,2.389,2.389,0,0,1-2.158-2.278,34.009,34.009,0,0,0-.685-4.643c-.263-1.593-.549-3.13,1.33-3.6s4.452-.135,6.507-.175q3.7-.072,7.367-.207C543.181,451.626,550.708,451.219,550.708,451.259Z" transform="translate(-142.926 -108.686)"/><path class="m" d="M550.7,488l1-8.761a2.389,2.389,0,0,0-2.174-2.636,114.569,114.569,0,0,0-19.418.12A2.389,2.389,0,0,0,527.956,479a33.992,33.992,0,0,1-.685,4.643c-.263,1.593-.55,3.13,1.33,3.6s4.452.135,6.507.175c2.461.048,4.914.112,7.367.207C543.177,487.655,550.7,488.061,550.7,488Z" transform="translate(-142.922 -113.772)"/><path class="k" d="M541.121,540.507q-.4,4.373-.5,8.761a41.475,41.475,0,0,1-8.69-1,1.537,1.537,0,0,1-1.426-1.88c-.056-1.816-1.012-5.87,1.545-6.125C532.813,540.188,541.113,540.65,541.121,540.507Z" transform="translate(-143.574 -126.799)"/><path class="n" d="M359.246,490.606a2.541,2.541,0,0,1,2.8,2.764c-.916,10.6-.191,21.457,1,32.027.534,4.7,1.243,9.645,3.122,13.349a2.087,2.087,0,0,1-1.848,3.043h0L329.059,542a1.4,1.4,0,0,1-1.378-1.7c2.8-12.122,2.182-25.36,1.043-37.9-.573-6.221-.892-9.558,3.743-10,4.779-.422,9.558-.621,14.3-1.027C347.777,491.291,355.009,491.068,359.246,490.606Z" transform="translate(-102.334 -116.691)"/><path class="j" d="M427.365,490.356a1.266,1.266,0,0,0-1.45,1.4c1.139,11.1.4,22.5-.852,33.588-.573,5.09-1.362,10.45-3.608,14.233a1.258,1.258,0,0,0,.335,1.649,3.338,3.338,0,0,0,2.023.51l35.451.207a1.274,1.274,0,0,0,1.235-1.593c-2.828-12.162-2.222-25.448-1.075-38.032.565-6.221.892-9.558-3.743-10-4.779-.422-9.558-.621-14.337-1.027C440.173,491.224,431.173,490.962,427.365,490.356Z" transform="translate(-121.39 -116.64)"/><line class="l" x2="18.032" y2="24.054" transform="translate(235.798 380.956)"/><line class="l" x1="17.435" y2="27.057" transform="translate(236.395 379.156)"/><line class="l" x2="9.821" y2="13.102" transform="translate(316.266 382.087)"/><line class="l" x1="9.494" y2="14.743" transform="translate(316.593 381.099)"/><path class="k" d="M346.338,539.271a105.6,105.6,0,0,1,12.4.151,1.187,1.187,0,0,1,1.051,1.035l.382,3.258a.5.5,0,0,1-.088.43.558.558,0,0,1-.3.08c-1.736.048-3.481-.159-5.209,0-1.075.08-2.135.287-3.186.406a38.015,38.015,0,0,1-5.3.1,26.637,26.637,0,0,1-7.375-.908c-.048,0,.143-2.692.143-2.955,0-1.258-.048-1.362,1.25-1.4Z" transform="translate(-104.583 -126.575)"/><path class="k" d="M441.457,524.171a103.883,103.883,0,0,1,12.4.159,1.171,1.171,0,0,1,1.051,1.035l.382,3.25a.5.5,0,0,1-.088.43.446.446,0,0,1-.3.08c-1.736.048-3.481-.159-5.209,0-1.075.08-2.135.295-3.186.406a36.844,36.844,0,0,1-5.3.1,26.729,26.729,0,0,1-7.383-.908c-.04,0,.143-2.692.143-2.955,0-1.258-.04-1.362,1.258-1.4Z" transform="translate(-123.94 -123.502)"/><path class="k" d="M447.806,535.5a105.438,105.438,0,0,0-12.393.151,1.171,1.171,0,0,0-1.051,1.035l-.366,3.25a.454.454,0,0,0,.088.43.438.438,0,0,0,.3.08c1.736.048,3.473-.151,5.209,0,1.075.08,2.135.295,3.186.414a39.294,39.294,0,0,0,5.3.1,26.655,26.655,0,0,0,7.383-.908c.04,0-.143-2.7-.143-2.955,0-1.266.048-1.37-1.25-1.4Z" transform="translate(-123.973 -125.808)"/><path class="o" d="M386.63,528.062s11.716-.6,13.819,0" transform="translate(-114.338 -124.263)"/><path class="o" d="M403.615,520.21s5.105,5.105,5.105,6.308-6.611,5.408-6.611,5.408" transform="translate(-117.488 -122.719)"/><path class="o" d="M482.84,513.119s10.617-4.97,12.792-5.209" transform="translate(-133.918 -120.216)"/><path class="o" d="M495.92,500.58s6.651,2.8,7.1,3.911-4.078,7.5-4.078,7.5" transform="translate(-136.58 -118.724)"/><path class="o" d="M482.7,530.43s10.792,4.58,12.425,6.045" transform="translate(-133.889 -124.799)"/><path class="o" d="M500.105,530.89s2.389,6.826,1.832,7.909-8.307,1.975-8.307,1.975" transform="translate(-136.114 -124.893)"/><path class="l" d="M533.344,499a5.264,5.264,0,0,1,.343,2.772.408.408,0,0,1-.048.215.446.446,0,0,1-.335.12l-7.575.295s.43-2.23.486-2.389c.255-.908.924-.669,1.776-.717Z" transform="translate(-142.647 -118.403)"/><path class="p" d="M310.624,563.359l2.676-2.493-2.389-.1-1.25,1.919Z" transform="translate(-63.014 -114.12)"/><path class="q" d="M286.7,581.182l2.835-3.64.629-.653,8.682-9.1,2.955-3.09,1.386-.167,1.991-1.975,1.171,1.027-1.935,2.262.032,1.187-3.019,3.273-8.522,9.255-.55.589-3.425,3.17Z" transform="translate(-58.342 -114.485)"/><path class="p" d="M291.05,578.226l8.682-9.1,2.581,2.517L293.79,580.9Z" transform="translate(-59.227 -115.822)"/><path class="r" d="M324.583,550.246a38.233,38.233,0,0,1-6.523-7.965c-3.823-5.958-10.211-9.176-14.592-10.776v-1.935l.271-.056-.119-1.8h.119l-.311-4.779v-.04h0l-1.577-23.711s-5.615-15.81,4.365-30.394.621-28.57-8.761-34.042c0,0-4.365-23.1-.621-28.57a162.21,162.21,0,0,0-15.675-7.925c-.088-.287-.159-.573-.231-.876-.1-2.151-.239-4.3-.358-6.452a23.473,23.473,0,0,1,.613-3.313c.119-.454.255-.908.4-1.378a23.719,23.719,0,0,0,15.253-21.991,23.1,23.1,0,0,0-1.481-8.156,10.25,10.25,0,0,0,1.139-2.66,10.524,10.524,0,0,0-1.481-7.582c-2.5-5.4-8.737-10.458-13.261-12.33-6.483-2.628-16.24-2.007-22.994-1.195-3.791.454-8.116,1.72-9.486,5.193a36.191,36.191,0,0,0-.86,3.982c-1.418,5.3-7.543,7.774-11.326,11.836-3.345,3.584-4.779,8.435-5.894,13.158a120.437,120.437,0,0,0-2.19,41.3c.382,3.186.892,6.332,1.434,9.486-2.278,3.186-4.333,8.817-3.393,18.6l-7.487,35.252-3.114,20.669a18,18,0,0,0,5.575,15.8c4.779,4.651,10.553,12.513,14.114,17.6a41.775,41.775,0,0,0-2.27,14.01c.08,2.167.2,4.261.35,6.252a55.219,55.219,0,0,0,2.389,12.457c.876,8.49,2.6,19.346,5.99,26.284l1.243,37.076s-1.872,34.042-5.575,40.724,8.1,63.217,8.1,63.217v7.9l-1.991,5.846-.5-.374c-9.351,11.549,0,15.8,0,15.8s2.549.119,6.619.279a7.455,7.455,0,0,0,3.982,8.236s52.99,2.429,62.349,0,6.858-10.944,1.864-10.354a22.674,22.674,0,0,1-7.463-.972c2.907-3.385.581-7.965-3.13-7.535-4.986.605-16.208-3.807-16.208-3.807l-.056.072a8.37,8.37,0,0,0-1.1-.334,124.782,124.782,0,0,1-12.337-3.449c-2.389-5.121-7.965-18.885-3.982-29.557,1.8-4.827,2.389-11.246,2.389-17.475A198.323,198.323,0,0,1,285,634.012l7.479-25.487s10.6-31.007,11.222-39.514l-.04-12.377c8.761,5.575,15.731,3.9,20.175,1.3a4.779,4.779,0,0,0,.749-7.686Zm-83.209-64.515c.215-.892.39-1.864.542-2.891,1.466,0,2.939,0,4.4-.048a22.437,22.437,0,0,1,2.214,11.947c-3.377-1.043-8.427-3.6-7.16-8.968Z" transform="translate(-79.658 -84.338)"/><path class="s" d="M254.629,830.765l-2.389,7.168,7.8,7.8,25.8,6,18.6-1.8-1.2-6.6h0a7.965,7.965,0,0,0-5.91-5.806c-7.646-1.8-22.222-5.894-25.288-11.589Z" transform="translate(-86.987 -184.939)"/><path class="h" d="M254.629,830.765l-2.389,7.168,7.8,7.8,25.8,6,18.6-1.8-1.2-6.6h0a7.965,7.965,0,0,0-5.91-5.806c-7.646-1.8-22.222-5.894-25.288-11.589Z" transform="translate(-86.987 -184.939)"/><path class="t" d="M297.4,850.735l-3.6-4.779,3.6-5.575s10.792,4.357,15.6,3.759,7.168,7.8-1.8,10.195-59.991,0-59.991,0-9-4.2,0-15.6l7.8,6s13.2,7.168,19.8,6Z" transform="translate(-85.963 -187.546)"/><path class="s" d="M317.217,860.482l-18.6,1.8-25.8-6.005-7.821-7.8.637-1.9.892-2.676.876-2.62,17.4-4.779a10.753,10.753,0,0,0,3.528,3.528c5.647,3.863,15.8,6.659,21.76,8.052.247.064.5.135.741.223A7.9,7.9,0,0,1,316,853.879Z" transform="translate(-89.584 -187.09)"/><path class="h" d="M317.217,863.057l-18.6,1.8-25.8-6.005-7.821-7.8.637-1.9,7.168,5.5s13.206,7.168,19.8,6H311.2l-3.6-4.779,3.234-4.994A7.9,7.9,0,0,1,316,856.454Z" transform="translate(-89.584 -189.664)"/><path class="t" d="M310.174,861.285l-3.6-4.779,3.6-5.575s10.8,4.357,15.6,3.759,7.168,7.8-1.792,10.2-60,0-60,0-9-4.206,0-15.6l7.8,6s13.206,7.168,19.8,6.005Z" transform="translate(-88.562 -189.693)"/><path class="s" d="M296.843,419.356s-28.793,2.995-24.6-9a21.505,21.505,0,0,0,.884-10.593,29.4,29.4,0,0,0-5.082-12.2l26.993,4.2a33.706,33.706,0,0,0-3.656,8.666C288.169,413.159,296.843,419.356,296.843,419.356Z" transform="translate(-90.204 -95.723)"/><path class="u" d="M242.44,599.21s.6,25.8,6.595,38.4l1.2,36.59s-1.8,33.6-5.4,40.2,7.8,62.4,7.8,62.4v9.6s19.2,7.168,24.6-1.2l-5.4-71.389,2.389-98.987Z" transform="translate(-84.992 -138.797)"/><path class="h" d="M242.43,599.21s.6,25.8,6.595,38.4l1.2,36.59s-1.8,33.6-5.4,40.2,7.8,62.4,7.8,62.4v9.6s19.2,7.168,24.6-1.2l-5.4-71.389,2.389-98.987Z" transform="translate(-84.99 -138.797)"/><path class="b" d="M225.639,495.27l-3.6,9.6-2.995,20.4a18.04,18.04,0,0,0,5.4,15.6c7.168,7.168,16.8,22.2,16.8,22.2l11.4-34.193s-11.4-1.8-9.558-9.6,1.195-22.2,1.195-22.2Z" transform="translate(-80.194 -117.644)"/><path class="h" d="M288.75,840.012c-7.7,12.115-19.673,5.249-21.8,3.887l.876-2.62,17.4-4.779A10.754,10.754,0,0,0,288.75,840.012Z" transform="translate(-89.981 -187.09)"/><path class="u" d="M307.369,611.574c-.605,8.395-10.8,39.028-10.8,39.028L289.4,675.778a200.147,200.147,0,0,0-7.949,54.734c0,6.141-.565,12.481-2.294,17.244-4.779,13.2,4.779,31.2,4.779,31.2-8.395,15-22.8,4.779-22.8,4.779v-9.558s-11.366-52.217-8.363-62.412,4.205-37.8,4.205-37.8V624.174a56.47,56.47,0,0,1-16.463-35.842c-.143-1.967-.263-4.03-.335-6.173-.486-13.54,8.761-29.406,12.377-35.045.876-1.37,1.418-2.135,1.418-2.135l52.958,21.011.119.048v6.587Z" transform="translate(-84.53 -127.76)"/><path class="h" d="M295.043,391.757a33.707,33.707,0,0,0-3.656,8.666,23.433,23.433,0,0,1-18.255-.661,29.4,29.4,0,0,0-5.082-12.2Z" transform="translate(-90.204 -95.723)"/><circle class="s" cx="23.401" cy="23.401" r="23.401" transform="translate(169.443 258.234)"/><path class="h" d="M309.98,572.578l-.263.048C284.565,577.8,253,551.583,253,551.583a30.262,30.262,0,0,0,2.182-4.468c.876-1.37,1.418-2.135,1.418-2.135l52.95,21.011.135,2.095Z" transform="translate(-87.142 -127.76)"/><path class="b" d="M297.25,423.145s-33.6-20.4-44.4-12l-15,19.2s-9.6,3-7.8,22.2l-7.168,34.8,21.593,5.4s12.6,11.995,2.389,29.4c0,0,31.8,26.4,57,21l-1.816-28.172s-5.4-15.6,4.2-30,.6-28.2-8.395-33.6C297.847,451.341,293.65,428.537,297.25,423.145Z" transform="translate(-81.014 -100.11)"/><path class="s" d="M316.937,580.38s12.6,2.389,18.6,12a37.324,37.324,0,0,0,6.284,7.845,4.779,4.779,0,0,1-.749,7.583c-4.779,2.867-12.521,4.628-22.3-3.433C301.94,590.583,316.937,580.38,316.937,580.38Z" transform="translate(-98.901 -134.965)"/><path class="h" d="M289.177,440.886s-12-1.2-15,30-7.8,38.39-7.8,38.39-3,16.2,4.2,25.8,21,30.067,21,30.067,15.006,4.205,18-10.8l-18.6-34.79s-2.995-12,4.2-20.4S307.775,434.912,289.177,440.886Z" transform="translate(-89.738 -106.485)"/><path class="b" d="M290.687,438.665s-12-1.2-15,30-7.8,38.39-7.8,38.39-3,16.216,4.2,25.774,21,30,21,30,15,4.205,18-10.792l-18.6-34.8s-3-12,4.2-20.4S309.269,432.659,290.687,438.665Z" transform="translate(-90.046 -106.032)"/><path class="h" d="M306.991,467s1.195,18.6-4.205,28.8-5.4,23.393,0,30.593" transform="translate(-96.449 -111.89)"/><path class="h" d="M303.05,435.8s-4.779-4.779-18.6-5.4-19.793-4.779-19.793-4.779" transform="translate(-89.515 -103.469)"/><path class="h" d="M261.4,336.613c-3.648.446-7.813,1.7-9.128,5.129a35.257,35.257,0,0,0-.836,3.982c-1.362,5.241-7.256,7.678-10.9,11.684-3.186,3.536-4.628,8.323-5.671,12.983a121.965,121.965,0,0,0-2.143,40.732c1.171,9.948,3.56,19.737,4.237,29.733s-.558,20.509-6.021,28.9c-2.389,3.616-5.448,6.786-7.113,10.76,3.441,2.788,8.188,3.186,12.616,3.337q7.742.263,15.484,0c2.708-.1,5.536-.271,7.869-1.641a12.194,12.194,0,0,0,4.134-4.428c2.947-5.01,3.7-11.031,3.568-16.846s-1.043-11.589-1.155-17.4c-.056-3.186.191-6.531,2.015-9.128,1.314-1.872,3.313-3.13,5.026-4.651,6.428-5.687,8.626-14.815,8.841-23.393s-1.195-17.172-.47-25.718c.279-3.353,1.529-7.367,4.827-8.021,1.035-.207,2.143,0,3.13-.4,2.644-1.012,2.389-4.739,3.138-7.463.852-3.066,3.465-5.432,4.2-8.522,1.728-7.256-7.511-15.93-13.54-18.447C277.258,335.187,267.867,335.816,261.4,336.613Z" transform="translate(-81.205 -85.213)"/><path class="u" d="M260.628,335.113c-3.648.446-7.814,1.7-9.128,5.121a36.641,36.641,0,0,0-.8,3.982c-1.362,5.241-7.264,7.678-10.9,11.692-3.186,3.528-4.628,8.315-5.671,12.983a122.125,122.125,0,0,0-2.1,40.756c1.171,9.948,3.56,19.745,4.229,29.733s-.55,20.509-6.013,28.9c-2.389,3.616-5.448,6.786-7.113,10.76,3.441,2.8,8.188,3.186,12.616,3.337q7.742.263,15.484,0c2.708-.1,5.536-.263,7.869-1.641a12.051,12.051,0,0,0,4.126-4.428c2.955-5.01,3.7-11.031,3.576-16.846s-1.051-11.589-1.155-17.4c-.056-3.186.191-6.531,2.007-9.12,1.322-1.88,3.321-3.138,5.034-4.651,6.42-5.695,8.626-14.823,8.841-23.4s-1.2-17.172-.478-25.718c.287-3.345,1.537-7.367,4.827-8.013,1.043-.207,2.151,0,3.138-.406,2.644-1.012,2.389-4.731,3.138-7.463.844-3.066,3.457-5.424,4.2-8.514,1.728-7.264-7.511-15.93-13.54-18.455C276.51,333.7,267.128,334.309,260.628,335.113Z" transform="translate(-81.062 -84.908)"/><path class="a" d="M77.371,4c42.731,0,77.371,5.7,77.371,17.673S120.1,43.347,77.371,43.347,0,33.643,0,21.673,34.64,4,77.371,4Z" transform="translate(734.091 664.786)"/></g><g transform="translate(1635.953 736.77)"><path class="i" d="M145.7,693.889h-5.855v49.5s37.793,12.243,74.522,0v-49.5Z" transform="translate(-85.051 -554.426)"/><path class="i" d="M244.022,522.527c-9.265,34.251-41,55.463-41,55.463s-16.714-34.319-7.449-68.57,41-55.463,41-55.463S253.287,488.276,244.022,522.527Z" transform="translate(-109.807 -442.21)"/><path class="b" d="M128.242,522.527c9.265,34.251,41,55.463,41,55.463s16.714-34.319,7.449-68.57-41-55.463-41-55.463S118.977,488.276,128.242,522.527Z" transform="translate(-78.317 -442.21)"/><path class="i" d="M100.449,545.372c25.424,24.75,28.53,62.8,28.53,62.8s-38.116-2.081-63.54-26.831-28.53-62.8-28.53-62.8S75.025,520.622,100.449,545.372Z" transform="translate(-36.909 -472.416)"/><path class="b" d="M238.406,545.372c-25.424,24.75-28.53,62.8-28.53,62.8s38.116-2.081,63.54-26.831,28.53-62.8,28.53-62.8S263.83,520.622,238.406,545.372Z" transform="translate(-117.806 -472.416)"/><ellipse class="b" cx="11.711" cy="11.711" rx="11.711" ry="11.711" transform="translate(80.342 0)"/></g></g></svg>