<svg viewBox="0 0 947.94 787.79" xmlns="http://www.w3.org/2000/svg" xmlns:xlink="http://www.w3.org/1999/xlink"><linearGradient id="a" gradientTransform="translate(-55.96 -1400.41)" gradientUnits="userSpaceOnUse" x1="425.92" x2="442.68" y1="2075.54" y2="2075.54"><stop offset="0" stop-color="#183866"/><stop offset="1" stop-color="#1a7fc1"/></linearGradient><linearGradient id="b" gradientTransform="translate(-55.96 -1400.41)" gradientUnits="userSpaceOnUse" x1="466.46" x2="474.15" y1="2077.66" y2="2077.66"><stop offset="0"/><stop offset=".99" stop-opacity="0"/></linearGradient><linearGradient id="c" x1="483.62" x2="529.37" xlink:href="#b" y1="2064.95" y2="2044.52"/><linearGradient id="d" x1="482.9" x2="427.29" xlink:href="#b" y1="2005.54" y2="2024.19"/><linearGradient id="e" x1="513.75" x2="371.22" xlink:href="#b" y1="2065.88" y2="2113.69"/><linearGradient id="f" x1="518.57" x2="513.63" xlink:href="#b" y1="2080.35" y2="2082.01"/><linearGradient id="g" x1="464.03" x2="420.72" xlink:href="#b" y1="2066.18" y2="2054.41"/><linearGradient id="h" x1="816.42" x2="41.38" xlink:href="#b" y1="2010.74" y2="2048.02"/><linearGradient id="i" x1="383.43" x2="778.32" xlink:href="#a" y1="1890.18" y2="1890.18"/><linearGradient id="j" gradientTransform="matrix(1 0 0 -1 -.01 1702)" x1="520.36" x2="562.03" xlink:href="#b" y1="1273.83" y2="1106.78"/><linearGradient id="k" gradientTransform="matrix(1 0 0 -1 0 1702)" x1="452" x2="592.03" xlink:href="#b" y1="1247.34" y2="1200.41"/><linearGradient id="l" gradientTransform="matrix(1 0 0 -1 -.01 1702)" x1="451.54" x2="447.88" xlink:href="#b" y1="1212.3" y2="1185.69"/><linearGradient id="m" gradientTransform="translate(-.01 -1400)" x1="148.86" x2="120.53" xlink:href="#b" y1="2057.13" y2="2193.61"/><linearGradient id="n" x1="197.01" x2="139.99" xlink:href="#b" y1="2089.36" y2="1829.28"/><linearGradient id="o" x1="200.24" x2="193.58" xlink:href="#b" y1="2094.63" y2="2064.24"/><linearGradient id="p" x1="192.24" x2="256.22" xlink:href="#b" y1="2108.22" y2="1889.19"/><linearGradient id="q" gradientTransform="translate(-55.96 -1400.41)" gradientUnits="userSpaceOnUse" x1="455.56" x2="516.27" y1="1679.4" y2="1679.4"><stop offset="0" stop-color="#ecc4d7"/><stop offset=".42" stop-color="#efd4d1"/><stop offset="1" stop-color="#f2eac9"/></linearGradient><linearGradient id="r" x1="467.88" x2="524.38" xlink:href="#q" y1="1890.13" y2="1890.13"/><linearGradient id="s" x1="550.63" x2="595.64" xlink:href="#q" y1="1871.9" y2="1871.9"/><linearGradient id="t" gradientUnits="userSpaceOnUse" x1="794.33" x2="544.58" y1="424.82" y2="259.48"><stop offset="0" stop-color="#ecc4d7"/><stop offset=".99" stop-color="#efd4d1" stop-opacity=".5"/></linearGradient><linearGradient id="u" x1="807.5" x2="633.89" xlink:href="#b" y1="1914.34" y2="1752.45"/><linearGradient id="v" x1="515.85" x2="514.17" xlink:href="#b" y1="2082.58" y2="2083.14"/><linearGradient id="w" x1="248.15" x2="180.55" xlink:href="#b" y1="2136.1" y2="2138.68"/><linearGradient id="x" x1="258.43" x2="202.42" xlink:href="#b" y1="2105.09" y2="2107.02"/><linearGradient id="y" gradientTransform="translate(-.01 -1400)" x1="148.86" x2="120.53" xlink:href="#b" y1="2056.93" y2="2193.41"/><path d="m908.71 4c-33.54-.6-394.42-3.17-464-4-16.52-.2-28.21 14.76-40.59 24.8-44.34 36-75.17 98.38-108 164.75-12.2 24.69-26.11 54.5-60.4 84.33-23 20-53.27 32.8-81.95 46.71-46.23 22.41-90.77 49.41-120.69 86.49s-43.31 85.8-24.18 127.6c12.9 28.21 38.88 50.65 65.5 71 31.32 23.89 65 46.26 103.85 60.49 65.65 24 122.93 22.73 155.61 23.32 195.78 3.51 232.29 107.51 384.5 97.64 77.89-5 167.32-38.08 221-88.4 9.53-8.92 7.68-164.24 8.41-317.46.7-139.96.42-376.56-39.06-377.27z" fill="#044775" opacity=".1"/><path d="m332.45 399.22s-25.13-4.42-32.17 13 0 77.58 0 77.58l93.72 66.38z" fill="#3f3d56"/><path d="m450.59 667.15-36.37 10.77a10 10 0 0 1 -12.4-6.74 10 10 0 0 1 6.74-12.4l36.32-10.78a10 10 0 0 1 12.4 6.73 10 10 0 0 1 -6.69 12.42z" fill="#02457a"/><circle cx="448.54" cy="690.18" fill="#25233a" r="16.76"/><circle cx="445.52" cy="691.71" fill="#3f3d56" r="8.38"/><circle cx="381.35" cy="673.62" fill="#25233a" r="16.76"/><path d="m386.72 675.13a8.38 8.38 0 1 1 -8.38-8.38 8.38 8.38 0 0 1 8.38 8.38z" fill="url(#a)"/><circle cx="376.5" cy="696.54" fill="#25233a" r="16.76"/><path d="m389.74 697.1a8.38 8.38 0 1 1 -8.38-8.38 8.38 8.38 0 0 1 8.38 8.38z" fill="#3f3d56"/><g fill="#02457a"><path d="m451.91 683.59-76.65-15.47a10 10 0 0 1 -7.8-11.76 10 10 0 0 1 11.75-7.8l76.65 15.44a10 10 0 0 1 7.8 11.76 10 10 0 0 1 -11.75 7.83z"/><path d="m404.66 563.17h20.93v88.15a10.46 10.46 0 0 1 -10.46 10.46 10.46 10.46 0 0 1 -10.46-10.46v-88.15z"/><path d="m412.17 677.8-36.36 10.79a10 10 0 0 1 -12.41-6.74 10 10 0 0 1 6.74-12.4l36.36-10.76a10 10 0 0 1 12.4 6.73 10 10 0 0 1 -6.73 12.38z"/></g><path d="m418.19 676.73-4 1.19a9.94 9.94 0 0 1 -3.68.37l1.67-.49a9.74 9.74 0 0 0 3.21-1.63z" fill="url(#b)"/><path d="m457.7 657.59a9.93 9.93 0 0 1 -2.26 6.3l-31.8-6.43a10.29 10.29 0 0 0 1.7-3.64l19.59-5.8a10 10 0 0 1 12.38 6.84 10.12 10.12 0 0 1 .39 2.73z" fill="url(#c)"/><path d="m404.93 653.7a10.59 10.59 0 0 1 -.27-2.38v-88.15h7.27v95a3.48 3.48 0 0 0 .07 1.4 9.47 9.47 0 0 0 -3.48-.77 17.94 17.94 0 0 0 -2.54 0l.52-.15c.32-.06-1.15-3.15-1.57-4.95z" fill="url(#d)" opacity=".31"/><path d="m458.64 682.51a9.82 9.82 0 0 1 -4.77 1.23 10.36 10.36 0 0 1 -2-.2l-33.72-6.81-2.81-.56a9.74 9.74 0 0 1 -3.21 1.63l-1.67.49-34.65 10.3a10 10 0 0 1 -12.41-6.74 8.54 8.54 0 0 0 10.87.62c4.23-2.93 21.07-7.33 30.61-9.67a11.72 11.72 0 0 0 8.8-9.27 6.69 6.69 0 0 1 .12-.8c1.59 1.72 4.51 3.65 9.79 5.29 13 4 34.11 6.65 34.11 6.65s3.81 3.74.94 7.84z" fill="url(#e)" opacity=".31"/><path d="m462.26 679.15a9.82 9.82 0 0 1 -2.49 2.65c.67-.69 1.53-1.61 2.49-2.65z" fill="url(#f)"/><path d="m404.93 653.7a10.4 10.4 0 0 0 2.52 4.74c-.31.06-.63.14-1 .23l-31.45 9.33a10 10 0 0 1 2.24-19.69 10.36 10.36 0 0 1 2 .2z" fill="url(#g)"/><path d="m453.49 229.09s-.41-31.08-25.32-28.4-23-7.61-33.64-6.48-23 11.63-19.45 24.6-9.39 15.87-17.89 25.71 2 17.89 16.32 27.51-.89 7.13 7.6 22.34 37.23-4.22 37.23-4.22z" fill="#3f3d56"/><path d="m250.3 749.1 17.67.6v-141.11s.89-36.49 35.33-40.15 346.78-48.87 346.78-48.87 12.38-1.31 19.51 22.43 14.07 117.09 14.07 117.09l95.87 12.91s2.53-164.9-32.09-174-487.37 37.27-487.37 37.27-33.58 175.14-9.77 213.83z" fill="#02457a"/><path d="m250.3 749.1 17.67.6v-141.11s.89-36.49 35.33-40.15 346.78-48.87 346.78-48.87 12.38-1.31 19.51 22.43 14.07 117.09 14.07 117.09l95.87 12.91s2.53-164.9-32.09-174-487.37 37.27-487.37 37.27-33.58 175.14-9.77 213.83z" fill="url(#h)"/><path d="m157.06 552.59s8.66-47.92 69.57-60.48l430-49.26s42.21-1.75 61.52 9.94 46.87 21.38 58.17 74.28 14 143.27 14 143.27l-10.73 1.66s-15.59-163.64-32.13-174-463.46 53.2-463.46 53.2-31 6.17-33.7 52.11 0 145.78 0 145.78l-93.24-37.64z" fill="#02457a"/><path d="m599.41 461.29c-22.25-2.9-44.68-5-67.1-4.15-16.85.66-33.59 3-50.3 5.33l-147.37 20.61c-2.5.35-5.35.92-6.6 3.12-2.4 4.2 3.24 8.34 7.81 9.94 49 17.18 101.35 34.58 151.79 22.33 23.06-5.6 44.48-17.23 67.87-21.27s47.4-.32 70.74-4.13c21.94-3.58 42.83-13.75 65.07-13.85 6.82 0 13.84.88 20.31-1.28s12.19-8.76 10.4-15.34c-20.88-.73-44.32-4.59-64.8-.4-20.23 4.14-37.52-.91-57.82-.91z" fill="url(#i)" opacity=".19"/><path d="m466.14 486.41.86 3.29s25.46 15.83 25.3 16.34 105.61-25.27 105.61-25.27l2.46-7.4z" fill="#02457a"/><path d="m466.14 486.41.86 3.29s25.46 15.83 25.3 16.34 105.61-25.27 105.61-25.27l2.46-7.4z" fill="url(#j)"/><path d="m468.52 486.41 93.04-20.97 38.79 7.93-105.7 26.59z" fill="#02457a"/><path d="m468.52 486.41 93.04-20.97 38.79 7.93-105.7 26.59z" fill="url(#k)"/><path d="m439.23 503 22.09.74s5.61.33 7.06-3.93-9-13.25-10.12-13.42-30.19 7.55-26 15.27z" fill="#02457a"/><path d="m439.23 503 22.09.74s5.61.33 7.06-3.93-9-13.25-10.12-13.42-30.19 7.55-26 15.27z" fill="url(#l)"/><ellipse cx="141.99" cy="690.2" fill="#02457a" rx="49.08" ry="8.83"/><ellipse cx="141.99" cy="690.2" fill="url(#m)" rx="49.08" ry="8.83"/><path d="m123.64 493.18c-4.82-2.28-10-4-14.17-7.33-8.4-6.77-10.53-18.43-13.16-28.89s-7.72-22-18.09-25c-3.88-1.11-8.43-.67-11.38 2.09-3.11 2.95-3.74 7.73-2.84 11.95s2.92 8 4.52 12a55.17 55.17 0 0 1 3.29 29.31c-1.31 8.11-4.44 16.33-2.43 24.28 3.41 13.49 20.4 21.4 20.87 35.3.32 9.38-7.4 18.06-5.65 27.29 1.29 6.83 7.58 12.16 7.92 19.1.38 7.87-7.06 14.53-6.7 22.4s8.18 13.13 13.3 19.32a32.17 32.17 0 0 1 7.31 18.35c.27 4.2-.27 8.55 1.1 12.53 1 2.91 3 5.38 4.55 8 1.71 2.83 3 5.89 5.06 8.51a20.82 20.82 0 0 0 22.3 7c1.59-10.46.2-21.13.64-31.7.87-20.48 8.62-41.12 3.66-61-1.82-7.29-5.32-14.21-5.94-21.69-.55-6.68 1.23-13.3 2.47-19.89 2.56-13.61 2.52-27.68 1.47-41.44-.83-10.92-8.51-15.95-18.1-20.49z" fill="#24a200"/><path d="m154.29 546.82c-.08 9.13 2 18.57-.92 27.24-2.21 6.57-7.07 12-9.58 18.41-5.79 14.91 2 31.63.41 47.55-.66 6.56-2.91 12.86-4.33 19.3a77.3 77.3 0 0 0 -1.28 24.83 6.28 6.28 0 0 0 5 6.54 78 78 0 0 0 15.15 4.09 40.18 40.18 0 0 1 5.18-28c7.93-13 23.34-21.76 26.21-36.69 1.94-10.11-2.58-20.37-2.26-30.66a33 33 0 0 1 6.74-18.9c3.73-4.86 8.78-8.62 12.25-13.66 8.34-12.15 5.74-28.39 3.26-42.92s-3.92-31.25 5.88-42.26c3.1-3.48 7.14-6.09 9.95-9.81 6.26-8.29 4.68-21.06-2.6-28.47s-19-9.46-28.9-6.2a20.84 20.84 0 0 0 -10.54 7.17c-5 7.1-3 16.8-.88 25.24 1.85 7.33 3.34 15.79.81 23.18-1.89 5.5-6.68 8.48-10.75 12.31a58.64 58.64 0 0 0 -18.8 41.71z" fill="#24a200"/><path d="m144 627.72c-1.42 9.92-3.47 19.92-3.89 29.87v1a2.63 2.63 0 0 1 -.17.72 77.3 77.3 0 0 0 -1.31 24.83 9.41 9.41 0 0 0 1 3.86c-.05.42-.11.83-.17 1.25a20.82 20.82 0 0 1 -22.3-7c-2-2.62-3.35-5.68-5.06-8.51-1.6-2.63-3.55-5.1-4.55-8-1.37-4-.83-8.33-1.1-12.53a32.17 32.17 0 0 0 -7.31-18.35c-5.13-6.15-13-11.31-13.35-19.31s7.08-14.53 6.7-22.4c-.34-6.94-6.63-12.27-7.92-19.1-1.75-9.23 6-17.91 5.65-27.29-.47-13.9-17.46-21.81-20.87-35.3-2-8 1.12-16.17 2.43-24.28a55.17 55.17 0 0 0 -3.25-29.28c-1.6-4-3.67-7.77-4.52-12s-.22-9 2.89-11.92c3-2.76 7.5-3.2 11.38-2.09 10.38 3 15.45 14.54 18.09 25s4.76 22.11 13.16 28.89c4.15 3.35 9.35 5 14.17 7.33 9.6 4.54 17.28 9.57 18.1 20.39 1 13.76 1.09 27.83-1.47 41.44-1.24 6.59-3 13.21-2.47 19.89s3.44 13 5.34 19.48c.21.73.42 1.47.6 2.21 2.48 10.29 1.67 20.7.2 31.2z" fill="url(#n)"/><path d="m139.64 688a9.41 9.41 0 0 1 -1.05-3.85 77.3 77.3 0 0 1 1.33-24.83c.05-.24.11-.48.17-.72-.36 9.82.78 19.72-.45 29.4z" fill="url(#o)"/><path d="m225.81 471.83c-2.81 3.72-6.85 6.33-9.95 9.81-9.8 11-8.36 27.73-5.88 42.26s5.08 30.77-3.26 42.92c-3.47 5-8.52 8.8-12.25 13.66a33 33 0 0 0 -6.74 18.9c-.32 10.29 4.2 20.55 2.26 30.66-2.87 14.93-18.28 23.71-26.21 36.69a40.24 40.24 0 0 0 -5.14 28 77.61 77.61 0 0 1 -15.11-4.09 8.14 8.14 0 0 1 -3.52-2.13 3.77 3.77 0 0 1 -.37-.52 9.41 9.41 0 0 1 -1.05-3.84 77.3 77.3 0 0 1 1.33-24.83c.05-.24.11-.48.17-.72 1.42-6.19 3.52-12.26 4.16-18.58a60.2 60.2 0 0 0 -.24-12.3c1.51-10.5 2.32-20.91-.23-31.13-.18-.74-.39-1.48-.6-2.21.19-.64.41-1.28.66-1.91 2.51-6.46 7.37-11.84 9.58-18.41 2.91-8.67.84-18.11.92-27.24.13-15.77 7.24-31 18.66-41.76 4.07-3.83 8.86-6.81 10.75-12.31 2.53-7.39 1-15.85-.81-23.18-2.13-8.44-4.15-18.14.88-25.24 2.5-3.52 6.44-5.81 10.54-7.17 9.86-3.26 21.63-1.21 28.9 6.2s8.81 20.23 2.55 28.47z" fill="url(#p)"/><path d="m403.06 315s-42.07 6.43-61.53 52.3-9.34 102.7-9 107.7 59.63 26.69 76.58 26.69 20.48-16.79 20.48-16.79l-30-12.61 91-10.39h16.41l-9 15s17.76 1.84 29.63 2.26 19.93-22.79 21.26-34.33-52.45-112.83-60.48-118.83-29.82-20.66-85.35-11z" fill="#02457a"/><path d="m453.49 229.09s7.45 4.25 6.78 18-4.87 34.44-9.11 39.8-19.07 7.46-19.07 7.46 8.09 19.49 14.11 24.52-6 23.56-17.79 17.48-25.35-21.35-25.35-21.35 9.79-18.39 6.48-28.07-16-43.65-6.48-52.93 29.94-22.58 50.43-4.91z" fill="url(#q)"/><path d="m386.03 381.03-6.6 80.87 20.16 10.39 16.39-2.81-20.45-24.69z" fill="#fff" opacity=".25"/><path d="m492.3 377s26.35 62.71 14.67 85l-9-1.73z" fill="#fff" opacity=".25"/><path d="m418.64 482s-10.06 9-5.57 16 9.85 6.8 14.32 3.67 13.25-10.56 23.71-7.15 13 5.58 13 5.58 5.51-3.61 4.08-7.23-12.37-15.35-15.54-16.87-16.33 3.15-16.33 3.15-9.67-2.74-17.67 2.85z" fill="url(#r)"/><path d="m510 465.11s-9.58 1.1-12 7.18-3.29 6.82-3.29 6.82 5.41 1 7.66-1.83 4.59-1.64 4.59-1.64l-.67 3.63s14.7 2.14 21.34-.16 9.49-5 9.49-5l2.6-6.14s-6.27-4.39-11-5.07-18.72 2.21-18.72 2.21z" fill="url(#s)"/><path d="m558.59 532.72s32.63 24.84 29.73 58.44-7.16 83.49-7.16 83.49-13.16 5.54-21.88 0-14-81.35-18.32-88.59-30.31-39.88-58.08-42.69z" fill="#25233a"/><path d="m394 556.14s15.73 15 43.77 19.71 41.11 8.64 49.68 32.75 16.79 76 19.48 81.8 14.13 2.84 14.13 2.84 6.47-7.42 6.47-48.68c0-57.52 4-69.31-10.41-83.76s-27.52-18.39-27.52-18.39z" fill="#3f3d56"/><path d="m507 690.4 2.67 21h5s32.2 1.76 33.21 1-1.55-16.67-13.75-16.22-13-3-13-3z" fill="#25233a"/><path d="m563.21 676.38 5.2 20.72 56.82-7.8s2-13.61-16-12.26c-4.75.35-8.29 3.69-14 3.72s-11.18-2.31-14.06-6.11z" fill="#25233a"/><path d="m761.34 415.72-215.07 11.52a9.44 9.44 0 0 1 -9.92-8.92v-152.9a11.35 11.35 0 0 1 11.11-11.34l214.19-4.42a10.36 10.36 0 0 1 10.57 10.15v144.44a11.5 11.5 0 0 1 -10.88 11.47z" fill="#3f3d56"/><path d="m771.26 415.72-215.07 11.52a9.44 9.44 0 0 1 -9.91-8.93v-152.89a11.33 11.33 0 0 1 11.1-11.34l214.21-4.42a10.36 10.36 0 0 1 10.55 10.14v144.45a11.5 11.5 0 0 1 -10.88 11.47z" fill="#02457a"/><path d="m771.26 415.72-215.07 11.52a9.44 9.44 0 0 1 -9.91-8.93v-152.89a11.33 11.33 0 0 1 11.1-11.34l214.21-4.42a10.36 10.36 0 0 1 10.55 10.14v144.45a11.5 11.5 0 0 1 -10.88 11.47z" fill="url(#t)"/><path d="m708.64 473.29-54.64 5.82s-16.63-3.36-15.73-5.82 18.29-4.83 18.29-4.83v-99.16c-.15-.22-2.44-3.14-8.71-5a31.49 31.49 0 0 0 -3.7-.86 10.9 10.9 0 0 1 -3.1-.94c-3.73-1.93.39-5.29 6.18-5.44a14.46 14.46 0 0 1 2.71.16h42s15.9 4.48 16.67 26.84.03 89.23.03 89.23z" fill="#02457a"/><path d="m664.2 473.5-10.2 5.61s-16.63-3.36-15.73-5.82 18.32-4.83 18.32-4.83v-99.16c-.21-.23-2.76-2.86-8.71-5a44.22 44.22 0 0 0 -6.8-1.8c-3.73-1.93.39-5.29 6.18-5.44 4.93.67 14.64 6.07 15.27 9.15s1.67 107.29 1.67 107.29z" fill="#02457a"/><path d="m664.2 473.5-10.2 5.61s-16.63-3.36-15.73-5.82 18.32-4.83 18.32-4.83v-99.16c-.21-.23-2.76-2.86-8.71-5a44.22 44.22 0 0 0 -6.8-1.8c-3.73-1.93.39-5.29 6.18-5.44 4.93.67 14.64 6.07 15.27 9.15s1.67 107.29 1.67 107.29z" fill="url(#u)"/><path d="m459.77 681.8c-1.27 1.3-1.86 1.78-1.11.71a8 8 0 0 0 1.11-.71z" fill="url(#v)"/><path d="m178.9 720.39-10.75 32.61c-31.18 11.07-57.69 0-57.69 0l-7.71-34.23s38.89 12.92 76.15 1.62z" fill="#8c6239"/><path d="m178.9 720.39-10.75 32.61c-31.18 11.07-57.69 0-57.69 0l-7.71-34.23s38.89 12.92 76.15 1.62z" fill="url(#w)"/><path d="m191.09 690-3.45 25.8-8.74 4.58c-37.23 11.3-76.15-1.58-76.15-1.58l-6.71-5-3.13-23.8z" fill="#8c6239"/><path d="m191.09 690-3.45 25.8-8.74 4.58c-37.23 11.3-76.15-1.58-76.15-1.58l-6.71-5-3.13-23.8z" fill="url(#x)"/><ellipse cx="141.99" cy="690" fill="#02457a" rx="49.08" ry="8.83"/><ellipse cx="141.99" cy="690" fill="url(#y)" rx="49.08" ry="8.83"/></svg>