<svg height="230" viewBox="0 0 167.91 252.51" width="167" xmlns="http://www.w3.org/2000/svg"><path d="m77 70.68a77 77 0 1 0 0 154" fill="#001b48"/><g fill="#6ec6ca"><circle cx="15.91" cy="81.83" r="2"/><circle cx="25.91" cy="81.83" r="2"/><circle cx="35.91" cy="81.83" r="2"/><circle cx="45.91" cy="81.83" r="2"/><circle cx="55.91" cy="81.83" r="2"/><circle cx="65.91" cy="81.83" r="2"/><circle cx="75.91" cy="81.83" r="2"/><circle cx="85.91" cy="81.83" r="2"/><circle cx="95.91" cy="81.83" r="2"/><circle cx="105.91" cy="81.83" r="2"/><circle cx="115.91" cy="81.83" r="2"/><circle cx="125.91" cy="81.83" r="2"/><circle cx="135.91" cy="81.83" r="2"/><circle cx="145.91" cy="81.83" r="2"/><circle cx="155.91" cy="81.83" r="2"/><circle cx="165.91" cy="81.83" r="2"/><circle cx="15.91" cy="91.83" r="2"/><circle cx="25.91" cy="91.83" r="2"/><circle cx="35.91" cy="91.83" r="2"/><circle cx="45.91" cy="91.83" r="2"/><circle cx="55.91" cy="91.83" r="2"/><circle cx="65.91" cy="91.83" r="2"/><circle cx="75.91" cy="91.83" r="2"/><circle cx="85.91" cy="91.83" r="2"/><circle cx="95.91" cy="91.83" r="2"/><circle cx="105.91" cy="91.83" r="2"/><circle cx="115.91" cy="91.83" r="2"/><circle cx="125.91" cy="91.83" r="2"/><circle cx="135.91" cy="91.83" r="2"/><circle cx="145.91" cy="91.83" r="2"/><circle cx="155.91" cy="91.83" r="2"/><circle cx="165.91" cy="91.83" r="2"/><circle cx="15.91" cy="101.83" r="2"/><circle cx="25.91" cy="101.83" r="2"/><circle cx="35.91" cy="101.83" r="2"/><circle cx="45.91" cy="101.83" r="2"/><circle cx="55.91" cy="101.83" r="2"/><circle cx="65.91" cy="101.83" r="2"/><circle cx="75.91" cy="101.83" r="2"/><circle cx="85.91" cy="101.83" r="2"/><circle cx="95.91" cy="101.83" r="2"/><circle cx="105.91" cy="101.83" r="2"/><circle cx="115.91" cy="101.83" r="2"/><circle cx="125.91" cy="101.83" r="2"/><circle cx="135.91" cy="101.83" r="2"/><circle cx="145.91" cy="101.83" r="2"/><circle cx="155.91" cy="101.83" r="2"/><circle cx="165.91" cy="101.83" r="2"/><circle cx="15.91" cy="111.83" r="2"/><circle cx="25.91" cy="111.83" r="2"/><circle cx="35.91" cy="111.83" r="2"/><circle cx="45.91" cy="111.83" r="2"/><circle cx="55.91" cy="111.83" r="2"/><circle cx="65.91" cy="111.83" r="2"/><circle cx="75.91" cy="111.83" r="2"/><circle cx="85.91" cy="111.83" r="2"/><circle cx="95.91" cy="111.83" r="2"/><circle cx="105.91" cy="111.83" r="2"/><circle cx="115.91" cy="111.83" r="2"/><circle cx="125.91" cy="111.83" r="2"/><circle cx="135.91" cy="111.83" r="2"/><circle cx="145.91" cy="111.83" r="2"/><circle cx="155.91" cy="111.83" r="2"/><circle cx="165.91" cy="111.83" r="2"/><circle cx="15.91" cy="121.83" r="2"/><circle cx="25.91" cy="121.83" r="2"/><circle cx="35.91" cy="121.83" r="2"/><circle cx="45.91" cy="121.83" r="2"/><circle cx="55.91" cy="121.83" r="2"/><circle cx="65.91" cy="121.83" r="2"/><circle cx="75.91" cy="121.83" r="2"/><circle cx="85.91" cy="121.83" r="2"/><circle cx="95.91" cy="121.83" r="2"/><circle cx="105.91" cy="121.83" r="2"/><circle cx="115.91" cy="121.83" r="2"/><circle cx="125.91" cy="121.83" r="2"/><circle cx="135.91" cy="121.83" r="2"/><circle cx="145.91" cy="121.83" r="2"/><circle cx="155.91" cy="121.83" r="2"/><circle cx="165.91" cy="121.83" r="2"/><circle cx="15.91" cy="131.83" r="2"/><circle cx="25.91" cy="131.83" r="2"/><circle cx="35.91" cy="131.83" r="2"/><circle cx="45.91" cy="131.83" r="2"/><circle cx="55.91" cy="131.83" r="2"/><circle cx="65.91" cy="131.83" r="2"/><circle cx="75.91" cy="131.83" r="2"/><circle cx="85.91" cy="131.83" r="2"/><circle cx="95.91" cy="131.83" r="2"/><circle cx="105.91" cy="131.83" r="2"/><circle cx="115.91" cy="131.83" r="2"/><circle cx="125.91" cy="131.83" r="2"/><circle cx="135.91" cy="131.83" r="2"/><circle cx="145.91" cy="131.83" r="2"/><circle cx="155.91" cy="131.83" r="2"/><circle cx="165.91" cy="131.83" r="2"/><circle cx="15.91" cy="141.83" r="2"/><circle cx="25.91" cy="141.83" r="2"/><circle cx="35.91" cy="141.83" r="2"/><circle cx="45.91" cy="141.83" r="2"/><circle cx="55.91" cy="141.83" r="2"/><circle cx="65.91" cy="141.83" r="2"/><circle cx="75.91" cy="141.83" r="2"/><circle cx="85.91" cy="141.83" r="2"/><circle cx="95.91" cy="141.83" r="2"/><circle cx="105.91" cy="141.83" r="2"/><circle cx="115.91" cy="141.83" r="2"/><circle cx="125.91" cy="141.83" r="2"/><circle cx="135.91" cy="141.83" r="2"/><circle cx="145.91" cy="141.83" r="2"/><circle cx="155.91" cy="141.83" r="2"/><circle cx="165.91" cy="141.83" r="2"/><circle cx="15.91" cy="151.83" r="2"/><circle cx="25.91" cy="151.83" r="2"/><circle cx="35.91" cy="151.83" r="2"/><circle cx="45.91" cy="151.83" r="2"/><circle cx="55.91" cy="151.83" r="2"/><circle cx="65.91" cy="151.83" r="2"/><circle cx="75.91" cy="151.83" r="2"/><circle cx="85.91" cy="151.83" r="2"/><circle cx="95.91" cy="151.83" r="2"/><circle cx="105.91" cy="151.83" r="2"/><circle cx="115.91" cy="151.83" r="2"/><circle cx="125.91" cy="151.83" r="2"/><circle cx="135.91" cy="151.83" r="2"/><circle cx="145.91" cy="151.83" r="2"/><circle cx="155.91" cy="151.83" r="2"/><circle cx="165.91" cy="151.83" r="2"/><circle cx="15.91" cy="161.83" r="2"/><circle cx="25.91" cy="161.83" r="2"/><circle cx="35.91" cy="161.83" r="2"/><circle cx="45.91" cy="161.83" r="2"/><circle cx="55.91" cy="161.83" r="2"/><circle cx="65.91" cy="161.83" r="2"/><circle cx="75.91" cy="161.83" r="2"/><circle cx="85.91" cy="161.83" r="2"/><circle cx="95.91" cy="161.83" r="2"/><circle cx="105.91" cy="161.83" r="2"/><circle cx="115.91" cy="161.83" r="2"/><circle cx="125.91" cy="161.83" r="2"/><circle cx="135.91" cy="161.83" r="2"/><circle cx="145.91" cy="161.83" r="2"/><circle cx="155.91" cy="161.83" r="2"/><circle cx="165.91" cy="161.83" r="2"/><circle cx="15.91" cy="171.83" r="2"/><circle cx="25.91" cy="171.83" r="2"/><circle cx="35.91" cy="171.83" r="2"/><circle cx="45.91" cy="171.83" r="2"/><circle cx="55.91" cy="171.83" r="2"/><circle cx="65.91" cy="171.83" r="2"/><circle cx="75.91" cy="171.83" r="2"/><circle cx="85.91" cy="171.83" r="2"/><circle cx="95.91" cy="171.83" r="2"/><circle cx="105.91" cy="171.83" r="2"/><circle cx="115.91" cy="171.83" r="2"/><circle cx="125.91" cy="171.83" r="2"/><circle cx="135.91" cy="171.83" r="2"/><circle cx="145.91" cy="171.83" r="2"/><circle cx="155.91" cy="171.83" r="2"/><circle cx="165.91" cy="171.83" r="2"/><circle cx="15.91" cy="181.83" r="2"/><circle cx="25.91" cy="181.83" r="2"/><circle cx="35.91" cy="181.83" r="2"/><circle cx="45.91" cy="181.83" r="2"/><circle cx="55.91" cy="181.83" r="2"/><circle cx="65.91" cy="181.83" r="2"/><circle cx="75.91" cy="181.83" r="2"/><circle cx="85.91" cy="181.83" r="2"/><circle cx="95.91" cy="181.83" r="2"/><circle cx="105.91" cy="181.83" r="2"/><circle cx="115.91" cy="181.83" r="2"/><circle cx="125.91" cy="181.83" r="2"/><circle cx="135.91" cy="181.83" r="2"/><circle cx="145.91" cy="181.83" r="2"/><circle cx="155.91" cy="181.83" r="2"/><circle cx="165.91" cy="181.83" r="2"/><circle cx="15.91" cy="191.83" r="2"/><circle cx="25.91" cy="191.83" r="2"/><circle cx="35.91" cy="191.83" r="2"/><circle cx="45.91" cy="191.83" r="2"/><circle cx="55.91" cy="191.83" r="2"/><circle cx="65.91" cy="191.83" r="2"/><circle cx="75.91" cy="191.83" r="2"/><circle cx="85.91" cy="191.83" r="2"/><circle cx="95.91" cy="191.83" r="2"/><circle cx="105.91" cy="191.83" r="2"/><circle cx="115.91" cy="191.83" r="2"/><circle cx="125.91" cy="191.83" r="2"/><circle cx="135.91" cy="191.83" r="2"/><circle cx="145.91" cy="191.83" r="2"/><circle cx="155.91" cy="191.83" r="2"/><circle cx="165.91" cy="191.83" r="2"/><circle cx="15.91" cy="201.83" r="2"/><circle cx="25.91" cy="201.83" r="2"/><circle cx="35.91" cy="201.83" r="2"/><circle cx="45.91" cy="201.83" r="2"/><circle cx="55.91" cy="201.83" r="2"/><circle cx="65.91" cy="201.83" r="2"/><circle cx="75.91" cy="201.83" r="2"/><circle cx="85.91" cy="201.83" r="2"/><circle cx="95.91" cy="201.83" r="2"/><circle cx="105.91" cy="201.83" r="2"/><circle cx="115.91" cy="201.83" r="2"/><circle cx="125.91" cy="201.83" r="2"/><circle cx="135.91" cy="201.83" r="2"/><circle cx="145.91" cy="201.83" r="2"/><circle cx="155.91" cy="201.83" r="2"/><circle cx="165.91" cy="201.83" r="2"/><circle cx="15.91" cy="211.83" r="2"/><circle cx="25.91" cy="211.83" r="2"/><circle cx="35.91" cy="211.83" r="2"/><circle cx="45.91" cy="211.83" r="2"/><circle cx="55.91" cy="211.83" r="2"/><circle cx="65.91" cy="211.83" r="2"/><circle cx="75.91" cy="211.83" r="2"/><circle cx="85.91" cy="211.83" r="2"/><circle cx="95.91" cy="211.83" r="2"/><circle cx="105.91" cy="211.83" r="2"/><circle cx="115.91" cy="211.83" r="2"/><circle cx="125.91" cy="211.83" r="2"/><circle cx="135.91" cy="211.83" r="2"/><circle cx="145.91" cy="211.83" r="2"/><circle cx="155.91" cy="211.83" r="2"/><circle cx="165.91" cy="211.83" r="2"/></g><ellipse cx="75.91" cy="224.68" fill="#d6ebee" rx="27.76" ry="27.83"/><ellipse cx="55.91" cy="27.83" fill="#018abe" rx="27.76" ry="27.83"/></svg>