<svg height="400" viewBox="0 0 174 389" width="167" xmlns="http://www.w3.org/2000/svg"><g fill="#e79796"><circle cx="2" cy="257" r="2"/><circle cx="12" cy="257" r="2"/><circle cx="22" cy="257" r="2"/><circle cx="32" cy="257" r="2"/><circle cx="42" cy="257" r="2"/><circle cx="52" cy="257" r="2"/><circle cx="62" cy="257" r="2"/><circle cx="72" cy="257" r="2"/><circle cx="82" cy="257" r="2"/><circle cx="92" cy="257" r="2"/><circle cx="102" cy="257" r="2"/><circle cx="112" cy="257" r="2"/><circle cx="122" cy="257" r="2"/><circle cx="132" cy="257" r="2"/><circle cx="142" cy="257" r="2"/><circle cx="152" cy="257" r="2"/><circle cx="2" cy="267" r="2"/><circle cx="12" cy="267" r="2"/><circle cx="22" cy="267" r="2"/><circle cx="32" cy="267" r="2"/><circle cx="42" cy="267" r="2"/><circle cx="52" cy="267" r="2"/><circle cx="62" cy="267" r="2"/><circle cx="72" cy="267" r="2"/><circle cx="82" cy="267" r="2"/><circle cx="92" cy="267" r="2"/><circle cx="102" cy="267" r="2"/><circle cx="112" cy="267" r="2"/><circle cx="122" cy="267" r="2"/><circle cx="132" cy="267" r="2"/><circle cx="142" cy="267" r="2"/><circle cx="152" cy="267" r="2"/><circle cx="2" cy="277" r="2"/><circle cx="12" cy="277" r="2"/><circle cx="22" cy="277" r="2"/><circle cx="32" cy="277" r="2"/><circle cx="42" cy="277" r="2"/><circle cx="52" cy="277" r="2"/><circle cx="62" cy="277" r="2"/><circle cx="72" cy="277" r="2"/><circle cx="82" cy="277" r="2"/><circle cx="92" cy="277" r="2"/><circle cx="102" cy="277" r="2"/><circle cx="112" cy="277" r="2"/><circle cx="122" cy="277" r="2"/><circle cx="132" cy="277" r="2"/><circle cx="142" cy="277" r="2"/><circle cx="152" cy="277" r="2"/><circle cx="2" cy="287" r="2"/><circle cx="12" cy="287" r="2"/><circle cx="22" cy="287" r="2"/><circle cx="32" cy="287" r="2"/><circle cx="42" cy="287" r="2"/><circle cx="52" cy="287" r="2"/><circle cx="62" cy="287" r="2"/><circle cx="72" cy="287" r="2"/><circle cx="82" cy="287" r="2"/><circle cx="92" cy="287" r="2"/><circle cx="102" cy="287" r="2"/><circle cx="112" cy="287" r="2"/><circle cx="122" cy="287" r="2"/><circle cx="132" cy="287" r="2"/><circle cx="142" cy="287" r="2"/><circle cx="152" cy="287" r="2"/><circle cx="2" cy="297" r="2"/><circle cx="12" cy="297" r="2"/><circle cx="22" cy="297" r="2"/><circle cx="32" cy="297" r="2"/><circle cx="42" cy="297" r="2"/><circle cx="52" cy="297" r="2"/><circle cx="62" cy="297" r="2"/><circle cx="72" cy="297" r="2"/><circle cx="82" cy="297" r="2"/><circle cx="92" cy="297" r="2"/><circle cx="102" cy="297" r="2"/><circle cx="112" cy="297" r="2"/><circle cx="122" cy="297" r="2"/><circle cx="132" cy="297" r="2"/><circle cx="142" cy="297" r="2"/><circle cx="152" cy="297" r="2"/><circle cx="2" cy="307" r="2"/><circle cx="12" cy="307" r="2"/><circle cx="22" cy="307" r="2"/><circle cx="32" cy="307" r="2"/><circle cx="42" cy="307" r="2"/><circle cx="52" cy="307" r="2"/><circle cx="62" cy="307" r="2"/><circle cx="72" cy="307" r="2"/><circle cx="82" cy="307" r="2"/><circle cx="92" cy="307" r="2"/><circle cx="102" cy="307" r="2"/><circle cx="112" cy="307" r="2"/><circle cx="122" cy="307" r="2"/><circle cx="132" cy="307" r="2"/><circle cx="142" cy="307" r="2"/><circle cx="152" cy="307" r="2"/><circle cx="2" cy="317" r="2"/><circle cx="12" cy="317" r="2"/><circle cx="22" cy="317" r="2"/><circle cx="32" cy="317" r="2"/><circle cx="42" cy="317" r="2"/><circle cx="52" cy="317" r="2"/><circle cx="62" cy="317" r="2"/><circle cx="72" cy="317" r="2"/><circle cx="82" cy="317" r="2"/><circle cx="92" cy="317" r="2"/><circle cx="102" cy="317" r="2"/><circle cx="112" cy="317" r="2"/><circle cx="122" cy="317" r="2"/><circle cx="132" cy="317" r="2"/><circle cx="142" cy="317" r="2"/><circle cx="152" cy="317" r="2"/><circle cx="2" cy="327" r="2"/><circle cx="12" cy="327" r="2"/><circle cx="22" cy="327" r="2"/><circle cx="32" cy="327" r="2"/><circle cx="42" cy="327" r="2"/><circle cx="52" cy="327" r="2"/><circle cx="62" cy="327" r="2"/><circle cx="72" cy="327" r="2"/><circle cx="82" cy="327" r="2"/><circle cx="92" cy="327" r="2"/><circle cx="102" cy="327" r="2"/><circle cx="112" cy="327" r="2"/><circle cx="122" cy="327" r="2"/><circle cx="132" cy="327" r="2"/><circle cx="142" cy="327" r="2"/><circle cx="152" cy="327" r="2"/><circle cx="2" cy="337" r="2"/><circle cx="12" cy="337" r="2"/><circle cx="22" cy="337" r="2"/><circle cx="32" cy="337" r="2"/><circle cx="42" cy="337" r="2"/><circle cx="52" cy="337" r="2"/><circle cx="62" cy="337" r="2"/><circle cx="72" cy="337" r="2"/><circle cx="82" cy="337" r="2"/><circle cx="92" cy="337" r="2"/><circle cx="102" cy="337" r="2"/><circle cx="112" cy="337" r="2"/><circle cx="122" cy="337" r="2"/><circle cx="132" cy="337" r="2"/><circle cx="142" cy="337" r="2"/><circle cx="152" cy="337" r="2"/><circle cx="2" cy="347" r="2"/><circle cx="12" cy="347" r="2"/><circle cx="22" cy="347" r="2"/><circle cx="32" cy="347" r="2"/><circle cx="42" cy="347" r="2"/><circle cx="52" cy="347" r="2"/><circle cx="62" cy="347" r="2"/><circle cx="72" cy="347" r="2"/><circle cx="82" cy="347" r="2"/><circle cx="92" cy="347" r="2"/><circle cx="102" cy="347" r="2"/><circle cx="112" cy="347" r="2"/><circle cx="122" cy="347" r="2"/><circle cx="132" cy="347" r="2"/><circle cx="142" cy="347" r="2"/><circle cx="152" cy="347" r="2"/><circle cx="2" cy="357" r="2"/><circle cx="12" cy="357" r="2"/><circle cx="22" cy="357" r="2"/><circle cx="32" cy="357" r="2"/><circle cx="42" cy="357" r="2"/><circle cx="52" cy="357" r="2"/><circle cx="62" cy="357" r="2"/><circle cx="72" cy="357" r="2"/><circle cx="82" cy="357" r="2"/><circle cx="92" cy="357" r="2"/><circle cx="102" cy="357" r="2"/><circle cx="112" cy="357" r="2"/><circle cx="122" cy="357" r="2"/><circle cx="132" cy="357" r="2"/><circle cx="142" cy="357" r="2"/><circle cx="152" cy="357" r="2"/><circle cx="2" cy="367" r="2"/><circle cx="12" cy="367" r="2"/><circle cx="22" cy="367" r="2"/><circle cx="32" cy="367" r="2"/><circle cx="42" cy="367" r="2"/><circle cx="52" cy="367" r="2"/><circle cx="62" cy="367" r="2"/><circle cx="72" cy="367" r="2"/><circle cx="82" cy="367" r="2"/><circle cx="92" cy="367" r="2"/><circle cx="102" cy="367" r="2"/><circle cx="112" cy="367" r="2"/><circle cx="122" cy="367" r="2"/><circle cx="132" cy="367" r="2"/><circle cx="142" cy="367" r="2"/><circle cx="152" cy="367" r="2"/><circle cx="2" cy="377" r="2"/><circle cx="12" cy="377" r="2"/><circle cx="22" cy="377" r="2"/><circle cx="32" cy="377" r="2"/><circle cx="42" cy="377" r="2"/><circle cx="52" cy="377" r="2"/><circle cx="62" cy="377" r="2"/><circle cx="72" cy="377" r="2"/><circle cx="82" cy="377" r="2"/><circle cx="92" cy="377" r="2"/><circle cx="102" cy="377" r="2"/><circle cx="112" cy="377" r="2"/><circle cx="122" cy="377" r="2"/><circle cx="132" cy="377" r="2"/><circle cx="142" cy="377" r="2"/><circle cx="152" cy="377" r="2"/><circle cx="2" cy="387" r="2"/><circle cx="12" cy="387" r="2"/><circle cx="22" cy="387" r="2"/><circle cx="32" cy="387" r="2"/><circle cx="42" cy="387" r="2"/><circle cx="52" cy="387" r="2"/><circle cx="62" cy="387" r="2"/><circle cx="72" cy="387" r="2"/><circle cx="82" cy="387" r="2"/><circle cx="92" cy="387" r="2"/><circle cx="102" cy="387" r="2"/><circle cx="112" cy="387" r="2"/><circle cx="122" cy="387" r="2"/><circle cx="132" cy="387" r="2"/><circle cx="142" cy="387" r="2"/><circle cx="152" cy="387" r="2"/></g><path d="m107 338a67 67 0 0 0 0-134" fill="#ff4c80" fill-opacity=".42"/><path d="m124.23 224.38a15.5 15.5 0 0 1 -12.23-18.16 15.46 15.46 0 0 1 18.08-12.22 15.5 15.5 0 0 1 12.25 18.16 15.46 15.46 0 0 1 -18.11 12.24z" fill="#c6c09c"/><path d="m144.11 387.09a21.76 21.76 0 0 1 -17.21-25.49 21.69 21.69 0 0 1 25.42-17.18h.06a21.76 21.76 0 0 1 17.19 25.48 21.7 21.7 0 0 1 -25.42 17.18z" fill="#e25b45"/><path d="m129.24 70.34a35.52 35.52 0 0 1 -28.06-41.6 35.41 35.41 0 0 1 41.5-28h.1a35.51 35.51 0 0 1 28.06 41.6 35.42 35.42 0 0 1 -41.5 28h-.07z" fill="#89d5c9"/></svg>