<svg id="ask" xmlns="http://www.w3.org/2000/svg" xmlns:xlink="http://www.w3.org/1999/xlink" width="1104.469" height="797.515" viewBox="0 0 1104.469 797.515">
  <defs>
    <linearGradient id="linear-gradient" x1="-0.259" y1="0.088" x2="1.139" y2="0.822" gradientUnits="objectBoundingBox">
      <stop offset="0" stop-color="#76e650"/>
      <stop offset="0.177" stop-color="#f9d649"/>
      <stop offset="0.389" stop-color="#f08e35"/>
      <stop offset="0.635" stop-color="#ec5157"/>
      <stop offset="0.813" stop-color="#ff18bd"/>
      <stop offset="1" stop-color="#1a4bff"/>
    </linearGradient>
  </defs>
  <rect id="Rectangle_4" data-name="Rectangle 4" width="9.832" height="388.345" transform="translate(959.049 388.464)" fill="#3f3d56"/>
  <path id="Path_6" data-name="Path 6" d="M1107.38,489.2c.626,135.795-94.913,246.321-94.913,246.321s-96.553-109.641-97.179-245.435S1010.2,243.761,1010.2,243.761,1106.754,353.4,1107.38,489.2Z" transform="translate(-47.766 -51.242)" fill="#3f3d56"/>
  <rect id="Rectangle_5" data-name="Rectangle 5" width="5.057" height="199.735" transform="translate(767.244 571.186)" fill="#3f3d56"/>
  <path id="Path_7" data-name="Path 7" d="M866.733,647.882c.322,69.842-48.816,126.689-48.816,126.689s-49.66-56.391-49.982-126.233,48.816-126.689,48.816-126.689S866.411,578.04,866.733,647.882Z" transform="translate(-47.766 -51.242)" fill="#3f3d56"/>
  <ellipse id="Ellipse_1" data-name="Ellipse 1" cx="137" cy="21" rx="137" ry="21" transform="translate(734.969 755.515)" fill="#eaeaea"/>
  <path id="Path_8" data-name="Path 8" d="M931.034,338.324c-11.607-19.612-34.57-20.526-34.57-20.526s-22.376-2.861-36.731,27.008c-13.379,27.841-31.845,54.722-2.973,61.239l5.215-16.232,3.23,17.44a112.969,112.969,0,0,0,12.353.211c30.919-1,60.366.292,59.418-10.8C935.715,381.911,942.2,357.194,931.034,338.324Z" transform="translate(-47.766 -51.242)" fill="#2f2e41"/>
  <path id="Path_9" data-name="Path 9" d="M889.234,375.258s15,21,6,38,21,35,21,35l22-48s-26-17-19-33Z" transform="translate(-47.766 -51.242)" fill="#fbbebe"/>
  <circle id="Ellipse_2" data-name="Ellipse 2" cx="26" cy="26" r="26" transform="translate(825.469 281.015)" fill="#fbbebe"/>
  <path id="Path_10" data-name="Path 10" d="M809.255,388.313l21.728-28.034s7.651-29.385,18.731-27.9-4.377,35.24-4.377,35.24l-21.589,31.031Z" transform="translate(-47.766 -51.242)" fill="#fbbebe"/>
  <path id="Path_11" data-name="Path 11" d="M871.469,710.015l7,37,15,4-4-44Z" fill="#fbbebe"/>
  <path id="Path_12" data-name="Path 12" d="M1022.469,670.015l27,37,11,5,9-15-27-35Z" fill="#fbbebe"/>
  <path id="Path_13" data-name="Path 13" d="M913.234,432.258,896.553,410.3s-32.319,5.959-35.319,8.959,8,58,8,58,2,15,11,23l9,6,74-15,2.782-32.926a86.41,86.41,0,0,0-22.782-66.074h0l-12.876,1.76Z" transform="translate(-47.766 -51.242)" fill="#f08e35"/>
  <path id="Path_14" data-name="Path 14" d="M865.234,421.258l-5-2-23-2s-8-2-6-6,4-5,0-6-5-2-4-5,7-9,7-9l-17-14s-.92.651-2.407,1.855c-8.44,6.834-35.147,31.489-15.593,56.145,23,29,50,46,72,40Z" transform="translate(-47.766 -51.242)" fill="#f08e35"/>
  <path id="Path_15" data-name="Path 15" d="M887.234,501.258v14s-9,17-6,33,4,24,4,24a136.533,136.533,0,0,0,7,40c7,20-16,151,13,153s45,4,54-6-15-182-15-182,82,171,99,164,60-23,55-32-131-209-131-209l-4-9Z" transform="translate(-47.766 -51.242)" fill="#1a4bff"/>
  <path id="Path_16" data-name="Path 16" d="M935.234,791.258s-16-1-16,4-8,22-8,22-6,20,10,18,26-20,26-20l-4-19Z" transform="translate(-47.766 -51.242)" fill="#2f2e41"/>
  <path id="Path_17" data-name="Path 17" d="M1102.234,756.258s-14-9-13-3,2,22,9,23,28,7,29,9,25,10,25-3-15-23-15-23l-17-13s-11-1-13,6S1102.234,756.258,1102.234,756.258Z" transform="translate(-47.766 -51.242)" fill="#2f2e41"/>
  <circle id="Ellipse_3" data-name="Ellipse 3" cx="16.604" cy="16.604" r="16.604" transform="translate(834.904 250.051)" fill="#2f2e41"/>
  <path id="Path_18" data-name="Path 18" d="M880.922,313.528a16.6,16.6,0,0,1,14.854-16.51,16.778,16.778,0,0,0-1.746-.094,16.6,16.6,0,1,0,1.748,33.114,16.6,16.6,0,0,1-14.856-16.51Z" transform="translate(-47.766 -51.242)" fill="#2f2e41"/>
  <path id="Path_19" data-name="Path 19" d="M878.136,285.191,855.45,273.307l-31.33,4.862L817.638,306.8l16.136-.621,4.508-10.517V306l7.445-.286,4.321-16.745,2.7,17.825,26.468-.54Z" fill="#2f2e41"/>
  <path id="Path_20" data-name="Path 20" d="M924.544,503.574l-34.987.946s-29.854,5.809-28.179-6.241,30.8-7.835,30.8-7.835l31.88-4.863Z" transform="translate(-47.766 -51.242)" fill="#fbbebe"/>
  <path id="Path_21" data-name="Path 21" d="M952.226,390.562a7.467,7.467,0,0,1,8.236,5.128c6.849,21.584,27.951,93.813,6.985,103.723-24.694,11.672-42.714,11.158-42.714,11.158l-9.645-23.748,8.781-8.24,9.374-60.275,4.492-25.55Z" transform="translate(-47.766 -51.242)" fill="#f08e35"/>
  <path id="Path_22" data-name="Path 22" d="M897.969,379.515l-4,40-35,15,39-9Z" opacity="0.4"/>
  <path id="Path_23" data-name="Path 23" d="M756.98,298.705h0a46.84,46.84,0,0,1,27.352,19.87l3.271,5.066.165.21,57.385,16.791a4.183,4.183,0,0,1,2.861,5.115l-4.455,16.335a4.183,4.183,0,0,1-5.162,2.928L781,348.975v0l-5.765,2.18a51.515,51.515,0,0,1-33.122,1.126h0Z" transform="translate(-47.766 -51.242)" fill="#3f3d56"/>
  <ellipse id="Ellipse_4" data-name="Ellipse 4" cx="3.504" cy="6.57" rx="3.504" ry="6.57" transform="translate(756.049 294.505) rotate(-73.69)" fill="#575a89"/>
  <circle id="Ellipse_5" data-name="Ellipse 5" cx="2.409" cy="2.409" r="2.409" transform="translate(764.307 291.731)" fill="#3f3d56"/>
  <ellipse id="Ellipse_6" data-name="Ellipse 6" cx="28.09" cy="12.703" rx="28.09" ry="12.703" transform="matrix(0.308, -0.951, 0.951, 0.308, 681.181, 297.289)" fill="#6c63ff"/>
  <path id="Path_24" data-name="Path 24" d="M759.994,329.124c4.611-14.22,3.357-27.472-2.711-30.355a5.888,5.888,0,0,1,1.076.238c6.673,2.164,8.2,15.881,3.419,30.639s-14.074,24.967-20.748,22.8a5.87,5.87,0,0,1-.708-.284C746.886,353,755.461,343.1,759.994,329.124Z" transform="translate(-47.766 -51.242)" opacity="0.4"/>
  <path id="Path_25" data-name="Path 25" d="M757.734,298.758,627.5,197.732a861.957,861.957,0,0,1-66.215-57.385c-37.125-35.388-87.524-63.681-146.2-78.744C272.519,25,159.582,89.9,108.214,185.181,29.72,330.785-30.436,567.06,317.608,441.291c76.117-27.506,153.165-30.429,211.586-44.918l211.54-43.616Z" transform="translate(-47.766 -51.242)" fill="url(#linear-gradient)"/>
  <circle id="Ellipse_7" data-name="Ellipse 7" cx="7" cy="7" r="7" transform="translate(311.969 63.515)" fill="#f2f2f2"/>
  <path id="Path_26" data-name="Path 26" d="M454.949,86.695h-1.822V84.873h-.356v1.822h-1.822v.356h1.822v1.822h.356V87.051h1.822Z" fill="#f2f2f2"/>
  <path id="Path_27" data-name="Path 27" d="M637.949,238.7h-1.822v-1.822h-.356V238.7h-1.822v.356h1.822v1.822h.356v-1.822h1.822Z" fill="#f2f2f2"/>
  <path id="Path_28" data-name="Path 28" d="M624.949,285.7h-1.822v-1.822h-.356V285.7h-1.822v.356h1.822v1.822h.356v-1.822h1.822Z" fill="#f2f2f2"/>
  <path id="Path_29" data-name="Path 29" d="M65.949,325.7H64.127v-1.822h-.356V325.7H61.949v.356h1.822v1.822h.356v-1.822h1.822Z" fill="#f2f2f2"/>
  <path id="Path_30" data-name="Path 30" d="M145.949,107.695h-1.822v-1.822h-.356v1.822h-1.822v.356h1.822v1.822h.356v-1.822h1.822Z" fill="#f2f2f2"/>
  <path id="Path_31" data-name="Path 31" d="M456.949,293.7h-1.822v-1.822h-.356V293.7h-1.822v.356h1.822v1.822h.356v-1.822h1.822Z" fill="#f2f2f2"/>
  <path id="Path_32" data-name="Path 32" d="M265.949,43.695h-1.822V41.873h-.356v1.822h-1.822v.356h1.822v1.822h.356V44.051h1.822Z" fill="#f2f2f2"/>
  <path id="Path_33" data-name="Path 33" d="M314.415,238.915l-2.27.35c.71,4.54,1.27,9.18,1.68,13.77l2.29-.2C315.7,248.185,315.135,243.505,314.415,238.915Z" transform="translate(-47.766 -51.242)" fill="#e6e6e6"/>
  <path id="Path_34" data-name="Path 34" d="M308.2,211.575l-2.2.67c1.33,4.4,2.52,8.91,3.53,13.4l2.25-.51C310.755,220.6,309.545,216.035,308.2,211.575Z" transform="translate(-47.766 -51.242)" fill="#e6e6e6"/>
  <path id="Path_35" data-name="Path 35" d="M298.295,185.355l-2.09.96c1.92,4.19,3.72,8.49,5.35,12.79l2.15-.81C302.055,193.945,300.245,189.585,298.295,185.355Z" transform="translate(-47.766 -51.242)" fill="#e6e6e6"/>
  <path id="Path_36" data-name="Path 36" d="M284.895,160.775l-1.94,1.23c2.47,3.88,4.84,7.9,7.04,11.93l2.02-1.1C289.795,168.755,287.395,164.7,284.895,160.775Z" transform="translate(-47.766 -51.242)" fill="#e6e6e6"/>
  <path id="Path_37" data-name="Path 37" d="M268.235,138.245l-1.75,1.49c2.98,3.5,5.88,7.16,8.62,10.86l1.84-1.37C274.185,145.485,271.255,141.785,268.235,138.245Z" transform="translate(-47.766 -51.242)" fill="#e6e6e6"/>
  <path id="Path_38" data-name="Path 38" d="M248.655,118.185l-1.53,1.71c3.44,3.07,6.81,6.3,10.02,9.59l1.65-1.61C255.545,124.545,252.135,121.285,248.655,118.185Z" transform="translate(-47.766 -51.242)" fill="#e6e6e6"/>
  <path id="Path_39" data-name="Path 39" d="M226.535,100.965l-1.29,1.9c3.82,2.57,7.6,5.31,11.23,8.14l1.42-1.81C234.215,106.335,230.395,103.565,226.535,100.965Z" transform="translate(-47.766 -51.242)" fill="#e6e6e6"/>
  <path id="Path_40" data-name="Path 40" d="M206.4,89.005v2.6c2.39,1.25,4.76,2.56,7.08,3.9l1.15-1.99Q210.585,91.175,206.4,89.005Z" transform="translate(-47.766 -51.242)" fill="#e6e6e6"/>
  <path id="Path_41" data-name="Path 41" d="M314.57,267.221l2.3-.042c.042,2.321.045,4.655.009,6.936l-2.3-.036C314.614,271.824,314.611,269.516,314.57,267.221Z" transform="translate(-47.766 -51.242)" fill="#e6e6e6"/>
  <path id="Path_42" data-name="Path 42" d="M179.415,435.915l-2.27.35c.71,4.54,1.27,9.18,1.68,13.77l2.29-.2C180.7,445.185,180.135,440.505,179.415,435.915Z" transform="translate(-47.766 -51.242)" fill="#e6e6e6"/>
  <path id="Path_43" data-name="Path 43" d="M173.2,408.575l-2.2.67c1.33,4.4,2.52,8.91,3.53,13.4l2.25-.51C175.755,417.6,174.545,413.035,173.2,408.575Z" transform="translate(-47.766 -51.242)" fill="#e6e6e6"/>
  <path id="Path_44" data-name="Path 44" d="M163.295,382.355l-2.09.96c1.92,4.19,3.72,8.49,5.35,12.79l2.15-.81C167.055,390.945,165.245,386.585,163.295,382.355Z" transform="translate(-47.766 -51.242)" fill="#e6e6e6"/>
  <path id="Path_45" data-name="Path 45" d="M149.895,357.775l-1.94,1.23c2.47,3.88,4.84,7.9,7.04,11.93l2.02-1.1C154.795,365.755,152.395,361.7,149.895,357.775Z" transform="translate(-47.766 -51.242)" fill="#e6e6e6"/>
  <path id="Path_46" data-name="Path 46" d="M133.235,335.245l-1.75,1.49c2.98,3.5,5.88,7.16,8.62,10.86l1.84-1.37C139.185,342.485,136.255,338.785,133.235,335.245Z" transform="translate(-47.766 -51.242)" fill="#e6e6e6"/>
  <path id="Path_47" data-name="Path 47" d="M113.655,315.185l-1.53,1.71c3.44,3.07,6.81,6.3,10.02,9.59l1.65-1.61C120.545,321.545,117.135,318.285,113.655,315.185Z" transform="translate(-47.766 -51.242)" fill="#e6e6e6"/>
  <path id="Path_48" data-name="Path 48" d="M91.535,297.965l-1.29,1.9c3.82,2.57,7.6,5.31,11.23,8.14l1.42-1.81C99.215,303.335,95.395,300.565,91.535,297.965Z" transform="translate(-47.766 -51.242)" fill="#e6e6e6"/>
  <path id="Path_49" data-name="Path 49" d="M71.4,286.005v2.6c2.39,1.25,4.76,2.56,7.08,3.9l1.15-1.99Q75.585,288.175,71.4,286.005Z" transform="translate(-47.766 -51.242)" fill="#e6e6e6"/>
  <path id="Path_50" data-name="Path 50" d="M179.57,464.221l2.3-.042c.042,2.321.045,4.655.009,6.936l-2.3-.036C179.614,468.824,179.611,466.516,179.57,464.221Z" transform="translate(-47.766 -51.242)" fill="#e6e6e6"/>
  <path id="Path_51" data-name="Path 51" d="M641.415,336.915l-2.27.35c.71,4.54,1.27,9.18,1.68,13.77l2.29-.2C642.7,346.185,642.135,341.505,641.415,336.915Z" transform="translate(-47.766 -51.242)" fill="#e6e6e6"/>
  <path id="Path_52" data-name="Path 52" d="M635.2,309.575l-2.2.67c1.33,4.4,2.52,8.91,3.53,13.4l2.25-.51C637.755,318.6,636.545,314.035,635.2,309.575Z" transform="translate(-47.766 -51.242)" fill="#e6e6e6"/>
  <path id="Path_53" data-name="Path 53" d="M625.295,283.355l-2.09.96c1.92,4.19,3.72,8.49,5.35,12.79l2.15-.81C629.055,291.945,627.245,287.585,625.295,283.355Z" transform="translate(-47.766 -51.242)" fill="#e6e6e6"/>
  <path id="Path_54" data-name="Path 54" d="M611.895,258.775l-1.94,1.23c2.47,3.88,4.84,7.9,7.04,11.93l2.02-1.1C616.795,266.755,614.395,262.7,611.895,258.775Z" transform="translate(-47.766 -51.242)" fill="#e6e6e6"/>
  <path id="Path_55" data-name="Path 55" d="M595.235,236.245l-1.75,1.49c2.98,3.5,5.88,7.16,8.62,10.86l1.84-1.37C601.185,243.485,598.255,239.785,595.235,236.245Z" transform="translate(-47.766 -51.242)" fill="#e6e6e6"/>
  <path id="Path_56" data-name="Path 56" d="M575.655,216.185l-1.53,1.71c3.44,3.07,6.81,6.3,10.02,9.59l1.65-1.61C582.545,222.545,579.135,219.285,575.655,216.185Z" transform="translate(-47.766 -51.242)" fill="#e6e6e6"/>
  <path id="Path_57" data-name="Path 57" d="M553.535,198.965l-1.29,1.9c3.82,2.57,7.6,5.31,11.23,8.14l1.42-1.81C561.215,204.335,557.395,201.565,553.535,198.965Z" transform="translate(-47.766 -51.242)" fill="#e6e6e6"/>
  <path id="Path_58" data-name="Path 58" d="M533.4,187.005v2.6c2.39,1.25,4.76,2.56,7.08,3.9l1.15-1.99Q537.585,189.175,533.4,187.005Z" transform="translate(-47.766 -51.242)" fill="#e6e6e6"/>
  <path id="Path_59" data-name="Path 59" d="M641.57,365.221l2.3-.042c.042,2.321.045,4.655.009,6.936l-2.3-.036C641.614,369.824,641.611,367.516,641.57,365.221Z" transform="translate(-47.766 -51.242)" fill="#e6e6e6"/>
  <path id="Path_60" data-name="Path 60" d="M149.295,199.9H147.6v-1.7h-.331v1.7h-1.7v.33h1.7v1.7h.331v-1.7h1.695Z" fill="#f2f2f2"/>
  <path id="Path_61" data-name="Path 61" d="M129.754,302.252h-1.695v-1.7h-.331v1.7h-1.7v.331h1.7v1.7h.331v-1.7h1.695Z" fill="#f2f2f2"/>
  <path id="Path_62" data-name="Path 62" d="M72.417,391.959h-1.7v-1.7H70.39v1.7H68.695v.331H70.39v1.7h.331v-1.7h1.7Z" fill="#f2f2f2"/>
  <path id="Path_63" data-name="Path 63" d="M279.684,329.425a122.811,122.811,0,1,1,56.982,45.751,39.726,39.726,0,1,1-56.982-45.751Z" transform="translate(-47.766 -51.242)" fill="#3f3d56"/>
  <path id="Path_64" data-name="Path 64" d="M380.894,190.679c28.154,0,47.524,15.616,47.524,38.064,0,14.865-7.207,25.151-21.1,33.334-13.063,7.583-17.493,13.139-17.493,22.748h0a5.931,5.931,0,0,1-5.931,5.931H369.5a5.931,5.931,0,0,1-5.927-5.724l-.026-.732c-1.276-15.466,4.129-25.076,17.718-33.034,12.688-7.583,18.019-12.388,18.019-21.7s-9.009-16.142-20.2-16.142c-8.5,0-15.231,4.139-18.318,10.9a13.252,13.252,0,0,1-12.112,7.573h0c-9.752,0-16.194-10.371-11.634-18.99C344.243,199.271,359.465,190.679,380.894,190.679ZM361.148,319.362c0-8.634,7.207-15.466,16.067-15.466,8.934,0,16.142,6.757,16.142,15.466s-7.207,15.466-16.142,15.466S361.148,328.071,361.148,319.362Z" transform="translate(-47.766 -51.242)" fill="#fff"/>
</svg>
