<svg xmlns="http://www.w3.org/2000/svg" width="1927.45" height="814.92" viewBox="0 0 1927.45 814.92">
  <g id="Group_2" data-name="Group 2" transform="translate(0 -7.08)">
    <rect id="Rectangle_4" data-name="Rectangle 4" width="1920" height="804" transform="translate(0 18)" fill="none"/>
    <g id="Group_1" data-name="Group 1">
      <path id="blob" d="M-50.089-64.647c2.619,1.868,3.714,5.883,3.285,9.318-.429,3.414-2.383,6.248-3.951,9.6-1.567,3.371-2.748,7.279-5.368,9.018s-6.7,1.31-9.576-.537c-2.9-1.846-4.616-5.11-6.892-8.352-2.254-3.264-5.089-6.527-5.11-9.812-.021-3.264,2.748-6.57,5.99-8.331s6.978-1.975,10.907-2.233S-52.709-66.515-50.089-64.647Z" transform="translate(1894.094 219.128)" fill="rgba(255,255,255,0.31)"/>
      <path id="blob-2" data-name="blob" d="M-50.089-64.647c2.619,1.868,3.714,5.883,3.285,9.318-.429,3.414-2.383,6.248-3.951,9.6-1.567,3.371-2.748,7.279-5.368,9.018s-6.7,1.31-9.576-.537c-2.9-1.846-4.616-5.11-6.892-8.352-2.254-3.264-5.089-6.527-5.11-9.812-.021-3.264,2.748-6.57,5.99-8.331s6.978-1.975,10.907-2.233S-52.709-66.515-50.089-64.647Z" transform="translate(1902.094 292.128)" fill="rgba(255,255,255,0.31)"/>
      <path id="blob-3" data-name="blob" d="M-50.089-64.691c11.094,2.36,6.379,9.219,5.95,12.654-.429,3.414-4.382,6.2-5.95,9.554-1.567,3.371-3.414,3.986-6.033,5.725s-6.7,1.31-9.576-.537c-2.9-1.846-4.616-5.11-6.892-8.352-2.254-3.264-5.089-6.527-5.11-9.812-.021-3.264,2.748-6.57,5.99-8.331s6.978-1.975,10.907-2.233S-61.183-67.051-50.089-64.691Z" transform="translate(1963.603 201.604)" fill="rgba(255,255,255,0.31)"/>
      <path id="blob-4" data-name="blob" d="M-50.089-64.691c11.094,2.36,6.379,9.219,5.95,12.654-.429,3.414-4.382,6.2-5.95,9.554-1.567,3.371-3.414,3.986-6.033,5.725s-6.7,1.31-9.576-.537c-2.9-1.846-4.616-5.11-6.892-8.352-2.254-3.264-5.089-6.527-5.11-9.812-.021-3.264,2.748-6.57,5.99-8.331s6.978-1.975,10.907-2.233S-61.183-67.051-50.089-64.691Z" transform="translate(1952.603 292.604)" fill="rgba(255,255,255,0.31)"/>
      <path id="blob-5" data-name="blob" d="M-57.282-65.123c8.2,1.745,4.717,6.817,4.4,9.358-.318,2.525-3.241,4.588-4.4,7.065-1.159,2.493-2.525,2.948-4.462,4.234s-4.954.969-7.081-.4c-2.143-1.365-3.414-3.779-5.1-6.176-1.667-2.413-3.763-4.827-3.779-7.256-.016-2.413,2.032-4.859,4.43-6.161s5.16-1.461,8.066-1.651S-65.486-66.869-57.282-65.123Z" transform="translate(1937.563 229.865)" fill="rgba(255,255,255,0.31)"/>
      <path id="blob-6" data-name="blob" d="M-57.282-65.123c8.2,1.745,4.717,6.817,4.4,9.358-.318,2.525-3.241,4.588-4.4,7.065-1.159,2.493-2.525,2.948-4.462,4.234s-4.954.969-7.081-.4c-2.143-1.365-3.414-3.779-5.1-6.176-1.667-2.413-3.763-4.827-3.779-7.256-.016-2.413,2.032-4.859,4.43-6.161s5.16-1.461,8.066-1.651S-65.486-66.869-57.282-65.123Z" transform="translate(1876.563 257.865)" fill="rgba(255,255,255,0.31)"/>
      <path id="blob-7" data-name="blob" d="M-50.089-65.344c7.581,7.464,6.379,9.219,5.95,12.654-6.312,4.42-4.382,6.2-5.95,9.554-1.567,3.371-3.414,3.986-6.033,5.725s-6.7,1.31-9.576-.537c-2.9-1.846-4.616-5.11-6.892-8.352-2.254-3.264-5.089-6.527-5.11-9.812-.021-3.264,2.748-6.57,5.99-8.331s6.978-1.975,10.907-2.233S-57.67-72.808-50.089-65.344Z" transform="translate(1877.289 149.552)" fill="rgba(255,255,255,0.31)"/>
      <path id="blob-8" data-name="blob" d="M-50.089-65.344c7.581,7.464,6.379,9.219,5.95,12.654-6.312,4.42-4.382,6.2-5.95,9.554-1.567,3.371-3.414,3.986-6.033,5.725s-6.7,1.31-9.576-.537c-2.9-1.846-4.616-5.11-6.892-8.352-2.254-3.264-5.089-6.527-5.11-9.812-.021-3.264,2.748-6.57,5.99-8.331s6.978-1.975,10.907-2.233S-57.67-72.808-50.089-65.344Z" transform="translate(1842.289 87.552)" fill="rgba(255,255,255,0.31)"/>
      <path id="blob-9" data-name="blob" d="M-50.089-64.691c11.094,2.36,6.379,9.219,5.95,12.654-.429,3.414-4.382,6.2-5.95,9.554-1.567,3.371-3.414,3.986-6.033,5.725s-6.7,1.31-9.576-.537c-2.9-1.846-4.616-5.11-6.892-8.352-2.254-3.264-5.089-6.527-5.11-9.812-.021-3.264,2.748-6.57,5.99-8.331s6.978-1.975,10.907-2.233S-61.183-67.051-50.089-64.691Z" transform="translate(1922.356 135.15)" fill="rgba(255,255,255,0.31)"/>
      <path id="blob-10" data-name="blob" d="M-50.089-64.691c11.094,2.36,6.379,9.219,5.95,12.654-.429,3.414-4.382,6.2-5.95,9.554-1.567,3.371-3.414,3.986-6.033,5.725s-6.7,1.31-9.576-.537c-2.9-1.846-4.616-5.11-6.892-8.352-2.254-3.264-5.089-6.527-5.11-9.812-.021-3.264,2.748-6.57,5.99-8.331s6.978-1.975,10.907-2.233S-61.183-67.051-50.089-64.691Z" transform="translate(1824.356 134.15)" fill="rgba(255,255,255,0.31)"/>
      <path id="blob-11" data-name="blob" d="M-50.089-64.691c11.094,2.36,6.379,9.219,5.95,12.654-.429,3.414-4.382,6.2-5.95,9.554-1.567,3.371-3.414,3.986-6.033,5.725s-6.7,1.31-9.576-.537c-2.9-1.846-4.616-5.11-6.892-8.352-2.254-3.264-5.089-6.527-5.11-9.812-.021-3.264,2.748-6.57,5.99-8.331s6.978-1.975,10.907-2.233S-61.183-67.051-50.089-64.691Z" transform="translate(1929.23 95.43)" fill="rgba(255,255,255,0.31)"/>
      <path id="blob-12" data-name="blob" d="M-50.089-64.691c11.094,2.36,6.379,9.219,5.95,12.654-.429,3.414-4.382,6.2-5.95,9.554-1.567,3.371-3.414,3.986-6.033,5.725s-6.7,1.31-9.576-.537c-2.9-1.846-4.616-5.11-6.892-8.352-2.254-3.264-5.089-6.527-5.11-9.812-.021-3.264,2.748-6.57,5.99-8.331s6.978-1.975,10.907-2.233S-61.183-67.051-50.089-64.691Z" transform="translate(1970.23 73.43)" fill="rgba(255,255,255,0.31)"/>
      <path id="blob-13" data-name="blob" d="M-54.392-64.95c9.365,1.992,5.385,7.782,5.022,10.682-.362,2.882-3.7,5.238-5.022,8.065-1.323,2.846-2.882,3.365-5.093,4.833s-5.655,1.106-8.084-.453c-2.447-1.559-3.9-4.314-5.818-7.05-1.9-2.755-4.3-5.51-4.314-8.283-.018-2.755,2.32-5.546,5.057-7.032s5.89-1.667,9.207-1.885S-63.757-66.942-54.392-64.95Z" transform="translate(1881.967 112.998)" fill="rgba(255,255,255,0.31)"/>
      <path id="blob-14" data-name="blob" d="M-54.392-64.95c9.365,1.992,5.385,7.782,5.022,10.682-.362,2.882-3.7,5.238-5.022,8.065-1.323,2.846-2.882,3.365-5.093,4.833s-5.655,1.106-8.084-.453c-2.447-1.559-3.9-4.314-5.818-7.05-1.9-2.755-4.3-5.51-4.314-8.283-.018-2.755,2.32-5.546,5.057-7.032s5.89-1.667,9.207-1.885S-63.757-66.942-54.392-64.95Z" transform="translate(1897.967 78.998)" fill="rgba(255,255,255,0.31)"/>
      <path id="blob-15" data-name="blob" d="M-50.089-64.251C-47.47-61.9-46.375-56.832-46.8-52.5c-.429,4.305-2.383,7.88-3.951,12.1-1.567,4.251-19.56,4.251-21.836.162-2.254-4.116-5.089-8.232-5.11-12.375-.021-4.116,2.748-8.286,5.99-10.506s6.978-2.491,10.907-2.816S-52.709-66.607-50.089-64.251Z" transform="translate(1926.175 179.408)" fill="rgba(255,255,255,0.31)"/>
      <path id="blob-16" data-name="blob" d="M-50.089-64.251C-47.47-61.9-46.375-56.832-46.8-52.5c-.429,4.305-2.383,7.88-3.951,12.1-1.567,4.251-19.56,4.251-21.836.162-2.254-4.116-5.089-8.232-5.11-12.375-.021-4.116,2.748-8.286,5.99-10.506s6.978-2.491,10.907-2.816S-52.709-66.607-50.089-64.251Z" transform="translate(1853.175 212.408)" fill="rgba(255,255,255,0.31)"/>
      <path id="blob-17" data-name="blob" d="M-50.089-64.647c2.619,1.868,3.714,5.883,3.285,9.318-.429,3.414-2.383,6.248-3.951,9.6-1.567,3.371-19.56,3.371-21.836.129-2.254-3.264-5.089-6.527-5.11-9.812-.021-3.264,2.748-6.57,5.99-8.331s6.978-1.975,10.907-2.233S-52.709-66.515-50.089-64.647Z" transform="translate(1967.422 156.493)" fill="rgba(255,255,255,0.31)"/>
      <path id="blob-18" data-name="blob" d="M-50.089-64.647c2.619,1.868,3.714,5.883,3.285,9.318-.429,3.414-2.383,6.248-3.951,9.6-1.567,3.371-19.56,3.371-21.836.129-2.254-3.264-5.089-6.527-5.11-9.812-.021-3.264,2.748-6.57,5.99-8.331s6.978-1.975,10.907-2.233S-52.709-66.515-50.089-64.647Z" transform="translate(1924.422 261.493)" fill="rgba(255,255,255,0.31)"/>
      <path id="blob-19" data-name="blob" d="M-50.089-64.806c2.619,1.868,3.714,5.883,3.285,9.318-.429,3.414-2.383,6.248-3.951,9.6-1.567,3.371-19.56,3.371-21.836.129-2.254-3.264-5.089-6.527-5.11-9.812-.021-3.264,2.748-6.57,5.99-8.331s3.279-4.125,10.907-2.233S-52.709-66.674-50.089-64.806Z" transform="translate(1884.164 187.969)" fill="rgba(255,255,255,0.31)"/>
      <path id="blob-20" data-name="blob" d="M-50.089-64.806c2.619,1.868,3.714,5.883,3.285,9.318-.429,3.414-2.383,6.248-3.951,9.6-1.567,3.371-19.56,3.371-21.836.129-2.254-3.264-5.089-6.527-5.11-9.812-.021-3.264,2.748-6.57,5.99-8.331s3.279-4.125,10.907-2.233S-52.709-66.674-50.089-64.806Z" transform="translate(1835.164 181.969)" fill="rgba(255,255,255,0.31)"/>
      <path id="blob-21" data-name="blob" d="M-50.089-64.806c2.619,1.868,3.714,5.883,3.285,9.318-.429,3.414-2.383,6.248-3.951,9.6-1.567,3.371-19.56,3.371-21.836.129-2.254-3.264-5.089-6.527-5.11-9.812-.021-3.264,2.748-6.57,5.99-8.331s3.279-4.125,10.907-2.233S-52.709-66.674-50.089-64.806Z" transform="translate(1969.714 126.098)" fill="rgba(255,255,255,0.31)"/>
      <path id="blob-22" data-name="blob" d="M-50.089-64.806c2.619,1.868,3.714,5.883,3.285,9.318-.429,3.414-2.383,6.248-3.951,9.6-1.567,3.371-19.56,3.371-21.836.129-2.254-3.264-5.089-6.527-5.11-9.812-.021-3.264,2.748-6.57,5.99-8.331s3.279-4.125,10.907-2.233S-52.709-66.674-50.089-64.806Z" transform="translate(1966.714 250.098)" fill="rgba(255,255,255,0.31)"/>
    </g>
  </g>
</svg>
