<svg xmlns="http://www.w3.org/2000/svg" width="1901.057" height="986.194" viewBox="0 0 1901.057 986.194">
  <g data-name="Group 1" transform="translate(-17 -94.255)" opacity="0.6">
    <path data-name="Path 6" d="M146.527,246.033s29.34,95.7,83.382,76.069,89.558,14.035,87.1,43.172" transform="translate(-12.632 -68.207)" fill="none" stroke="#fed730" stroke-width="5" opacity="0.588"/>
    <path data-name="Path 7" d="M1783.73,284.175s20.552,149.981,52.136,108.142c17.624-23.346,36.32-54.011,46.838-64.873" transform="translate(33.915 36.259)" fill="none" stroke="#e8a586" stroke-width="4" opacity="0.6"/>
    <path data-name="Path 8" d="M146.527,246.033s42.621,89.17,108.532,99.013,116.57,18.268,113.374,56.193" transform="translate(1251.424 679)" fill="none" stroke="#EEE" stroke-width="5" opacity="0."/>
    <circle data-name="Ellipse 1" cx="31.5" cy="31.5" r="31.5" transform="translate(1367 875)" fill="#DDD"/>
    <path d="M80.439,0A80.448,80.448,0,1,1,0,80.448,80.444,80.444,0,0,1,80.439,0Z" transform="translate(761.122 297.067)" fill="#94c0d4" opacity="0.2"/>
    <path data-name="Shape" d="M72.423,144.472A72.236,72.236,0,1,1,72.423,0Z" transform="translate(146.773 526.255)" fill="#94c0d4" opacity="0.7f"/>
    <path data-name="Shape" d="M0,0H94.851V94.861a94.832,94.832,0,0,1-36.3-7.221A94.858,94.858,0,0,1,27.781,67.076,94.868,94.868,0,0,1,7.22,36.3,94.869,94.869,0,0,1,0,0Z" transform="translate(1637 765.214)" fill="#f11ec1" opacity="0.7"/>
    <path data-name="Shape" d="M165.508,0a83.183,83.183,0,0,1-6.3,31.758,83.009,83.009,0,0,1-17.939,26.923A82.744,82.744,0,0,1,114.422,76.67a82.538,82.538,0,0,1-63.336,0A82.744,82.744,0,0,1,24.239,58.681,83.009,83.009,0,0,1,6.3,31.758,83.183,83.183,0,0,1,0,0Z" transform="translate(1829.139 157.187) rotate(90)" fill="#f45b0f" opacity="0.15"/>
    <path data-name="Shape" d="M54.513,0a54.516,54.516,0,0,1,54.513,54.519v54.519H0V54.519A54.516,54.516,0,0,1,54.513,0Z" transform="translate(396.773 120.585)" fill="#e6e6e6" opacity="0.2"/>
    <path data-name="Shape" d="M109.025,0a109.037,109.037,0,0,1-8.3,41.727A109.045,109.045,0,0,1,77.092,77.1a109.031,109.031,0,0,1-35.37,23.636A109.013,109.013,0,0,1,0,109.037V0Z" transform="translate(734.266 937.515)" fill="#94c0d4" opacity="0.2"/>
    <path data-name="Shape" d="M41.45,83.36A41.338,41.338,0,0,1,12.14,71.152,41.742,41.742,0,0,1,25.588,3.173,41.249,41.249,0,0,1,41.45,0Z" transform="translate(1091.365 623)" fill="#ffd726" opacity="0.2"/>
    <path data-name="Shape" d="M0,0A83.4,83.4,0,0,1,31.845,6.318a83.236,83.236,0,0,1,27,17.992A82.993,82.993,0,0,1,76.881,51.237a82.8,82.8,0,0,1,0,63.526A82.991,82.991,0,0,1,58.842,141.69a83.234,83.234,0,0,1-27,17.992A83.4,83.4,0,0,1,0,166Z" transform="translate(1295.798 540)" fill="#048ecb" opacity="0.2"/>
    <path data-name="Shape" d="M0,54.519A54.516,54.516,0,0,1,54.513,0h54.513V109.037H54.513A54.516,54.516,0,0,1,0,54.519Z" transform="translate(17 925.764)" fill="#ffd726" opacity="0.8"/>
    <path data-name="Shape" d="M83.761,83.77H0V0A83.742,83.742,0,0,1,32.054,6.377a83.772,83.772,0,0,1,27.174,18.16A83.783,83.783,0,0,1,77.385,51.713,83.767,83.767,0,0,1,83.761,83.77Z" transform="translate(92.014 94.255)" fill="#f5b540" opacity="0.6"/>
  </g>
</svg>
