<svg height="579" viewBox="0 0 665.27 579.42" width="665" xmlns="http://www.w3.org/2000/svg" xmlns:xlink="http://www.w3.org/1999/xlink"><linearGradient id="a" gradientTransform="matrix(1 0 0 -1 -66.71 164.22)" gradientUnits="userSpaceOnUse" x1="642.02" x2="668.82" y1="-99.16" y2="-99.16"><stop offset="0" stop-opacity="0"/><stop offset=".91" stop-opacity=".8"/><stop offset="1"/></linearGradient><linearGradient id="b" x1="670.56" x2="722.75" xlink:href="#a" y1="-160.59" y2="-160.59"/><linearGradient id="c" x1="596.47" x2="659.65" xlink:href="#a" y1="-164.2" y2="-164.2"/><linearGradient id="d" x1="603.66" x2="702.67" xlink:href="#a" y1="-314.16" y2="-314.16"/><linearGradient id="e" gradientTransform="matrix(1 0 0 -1 0 205.95)" x1="585.76" x2="587.52" xlink:href="#a" y1="-219.57" y2="-255.25"/><linearGradient id="f" x1="663.58" x2="678.92" xlink:href="#a" y1="-144.07" y2="-144.07"/><linearGradient id="g" x1="672.72" x2="731.98" xlink:href="#a" y1="-170.49" y2="-170.49"/><linearGradient id="h" gradientTransform="matrix(-1 0 0 -1 -4436.36 199.51)" gradientUnits="userSpaceOnUse" x1="-4885.33" x2="-4864.93" y1="-129.87" y2="-129.87"><stop offset=".01"/><stop offset="1" stop-opacity="0"/></linearGradient><linearGradient id="i" gradientTransform="matrix(1 0 0 -1 -128.65 199.51)" x1="284.72" x2="299.63" xlink:href="#h" y1="-116.73" y2="-116.73"/><linearGradient id="j" gradientTransform="matrix(1 0 0 -1 -128.65 199.51)" gradientUnits="userSpaceOnUse" x1="423.43" x2="448.55" y1="51.06" y2="77.38"><stop offset="0" stop-color="#ecc4d7"/><stop offset=".42" stop-color="#efd4d1"/><stop offset="1" stop-color="#f2eac9"/></linearGradient><linearGradient id="k" gradientTransform="translate(-128.65 -1408.44)" x1="418.55" x2="418.66" xlink:href="#j" y1="1529.5" y2="1529.5"/><linearGradient id="l" gradientTransform="translate(-128.65 -1408.44)" x1="427.7" x2="440.76" xlink:href="#j" y1="1469.82" y2="1516.88"/><linearGradient id="m" gradientTransform="matrix(1 0 0 -1 -128.65 199.51)" gradientUnits="userSpaceOnUse" x1="458.31" x2="547.17" y1="-167.6" y2="-263.34"><stop offset=".01"/><stop offset=".13" stop-opacity=".69"/><stop offset="1" stop-opacity="0"/></linearGradient><linearGradient id="n" x1="410.25" x2="393.76" xlink:href="#m" y1="-269.3" y2="-176.77"/><linearGradient id="o" x1="450.29" x2="447.3" xlink:href="#m" y1="-238.36" y2="-125.9"/><linearGradient id="p" gradientTransform="translate(-128.65 -1408.44)" x1="496.6" x2="574.36" xlink:href="#j" y1="1790.25" y2="1790.25"/><linearGradient id="q" gradientTransform="translate(-128.65 -1408.44)" x1="340.03" x2="417.8" xlink:href="#j" y1="1797.19" y2="1797.19"/><linearGradient id="r" x1="220.38" x2="295.94" xlink:href="#j" y1="-126.25" y2="-126.25"/><linearGradient id="s" x1="561.41" x2="648.46" xlink:href="#j" y1="-135.02" y2="-135.02"/><linearGradient id="t" gradientTransform="matrix(1 0 0 -1 -128.65 199.51)" x1="431.54" x2="338.1" xlink:href="#h" y1="-148.94" y2="-76.8"/><linearGradient id="u" gradientTransform="matrix(1 0 0 -1 -128.65 199.51)" x1="422.14" x2="524.52" xlink:href="#h" y1="-117.77" y2="-97.15"/><linearGradient id="v" x1="352.74" x2="425.92" xlink:href="#m" y1="-151.22" y2="-98.66"/><linearGradient id="w" gradientTransform="matrix(1 0 0 -1 -128.65 199.51)" x1="441.88" x2="491.35" xlink:href="#h" y1="-102.65" y2="-149.83"/><linearGradient id="x" x1="429.27" x2="440.95" xlink:href="#m" y1="16.29" y2="65.08"/><linearGradient id="y" x1="428.85" x2="422.67" xlink:href="#m" y1="-404.89" y2="-284.31"/><linearGradient id="z" x1="432.38" x2="435.13" xlink:href="#m" y1="-242.57" y2="-351.13"/><path d="m169.63 114.78c-6.37 26.49-7.53 55.26-24 77.62-19.81 26.82-56.75 37.46-80.84 60.91-31.27 30.62-34.28 83.05-6.6 116.56 15.19 18.46 37.17 30.51 56.4 45.27 36.94 28.55 64.55 68.29 106.9 89.35 45.51 22.59 104.85 18.46 146.31-10.31 37.87-26.28 60.23-69.8 100.87-92.07 20.15-11.07 43.79-16.28 63.24-28.55 30.58-19.33 46.91-55.8 42.71-90.11s-27.68-65.58-59.53-83.05c-18.17-9.9-40.39-17-50-34.59-8-14.55-4.86-31.92-7.53-48a69.72 69.72 0 0 0 -24.23-41.41c-27.8-23.07-69.33-23.4-105.98-18.4s-72.85 1-107.26 3.56c-30.18 2.52-43.74 25.44-50.46 53.22z" fill="#e25b45" opacity=".1"/><path d="m617.12 521.88h-61.25c-6.54 0-12-4.16-12.46-9.58l-6.41-66.17c-.59-6.06 5.17-11.25 12.46-11.25h74c7.32 0 13.07 5.19 12.46 11.25l-6.37 66.14c-.47 5.51-5.91 9.61-12.43 9.61z" fill="#8c6239"/><rect fill="#8c6239" height="46.29" rx="14.5" width="116.73" x="527.63" y="407.23"/><path d="m659.5 337.09c-9.22 16.5-26 28.58-31.15 30s-21.25 5.14-22.35 11.97a2.32 2.32 0 0 0 0 .33c-.61 7.1-3.72 29.36-3.72 29.36l-4.8.17-7.32.25-10.61.37a17.43 17.43 0 0 1 .14-1.84c.69-9.78 3.12-55.42-9.35-66.23-14-12.12-39.7-42.49-40.4-57.46s-.64-34 14.35-36.28 15.12 30.84 14.19 32.71 17.46 23 17.46 23-1.2-54.78 0-69.33c1-11.59 16-29.28 26.26-29.91a7 7 0 0 1 6.56 3.26c8.12 12.1-.34 46.07-2.79 52s-6.7 29.59-3.66 38.3 1.57 57.24 1.57 57.24 23.94-17.38 27.4-28.32 14.41-55.37 24.77-45.17a26 26 0 0 1 5.58 8.94c5.24 13.08 5.08 33.79-2.13 46.64z" fill="#24a200"/><path d="m590.11 322-14.3-18.12s-1.21-54.78 0-69.31c1-11.59 16-29.28 26.26-29.91-3.92 11.62-16.92 55.18-11.96 117.34z" fill="url(#a)" opacity=".25"/><path d="m656 281.5s-8.58 32.57-15.19 52.48-37 35.64-37 35.64v-14.55s23.94-17.38 27.4-28.32 14.47-55.37 24.79-45.25z" fill="url(#b)" opacity=".25"/><path d="m590.2 409.13-10.47-1.46c.69-9.78 3.12-55.42-9.35-66.23-14-12.12-39.7-42.49-40.4-57.46s-.64-34 14.35-36.28c0 0 2.71 24.52-.84 35.39s34.66 47 34.66 47 22.42 26.08 12.05 79.04z" fill="url(#c)" opacity=".25"/><path d="m617.12 521.88h-61.25c-6.54 0-12-4.16-12.46-9.58l-6.41-66.17c-.59-6.06 5.17-11.25 12.46-11.25h74c7.32 0 13.07 5.19 12.46 11.25l-6.37 66.14c-.47 5.51-5.91 9.61-12.43 9.61z" fill="url(#d)"/><rect fill="url(#e)" height="46.29" rx="14.5" width="116.73" x="527.63" y="407.23"/><path d="m606 259.4c-2.45 6-6.7 29.59-3.66 38.3s1.56 57.21 1.56 57.21l-1.59 53.83-4.81.44v-.26l2-36.39s-5.58-97-.45-112.46 9.74-52.66 9.74-52.66c8.09 12.07-.36 46.04-2.79 51.99z" fill="url(#f)" opacity=".25"/><path d="m659.5 337.09c-9.22 16.5-26 28.58-31.15 30s-21.25 5.14-22.35 11.97c1.67-12.65 31.15-23.13 44.47-42.93s11.14-45.76 11.14-45.76c5.26 13.16 5.1 33.87-2.11 46.72z" fill="url(#g)" opacity=".25"/><path d="m581.17 255.6c.34.62-6.71-2.8-6.5 0s6.5 2 6.5 2-4.78 3.89-.89 4.88 2.85-4.14 2.85-4.14 3 4.08 4.83 1.79-2.63-3.79-2.63-3.79 3.12-2.63 1.92-4-4.07 1.48-4.08 2.06-.14-4.67-1.64-4-2.45 1.49-.36 5.2z" fill="#fff"/><circle cx="582.72" cy="256.46" fill="#fffe73" r="1.67"/><path d="m536.09 259.51c.58.39-7 .53-5.61 2.85s6.5-1.11 6.5-1.11-2.41 5.45 1.37 4.6.65-4.85.65-4.85 4.38 2.21 5-.58-3.93-2.12-3.93-2.12 1.56-3.64-.11-4.3-2.85 3.12-2.62 3.58-2.18-4-3.12-2.76-1.54 2.4 1.87 4.69z" fill="#fff"/><circle cx="537.9" cy="259.38" fill="#fffe73" r="1.31"/><path d="m592.76 292.44c.89 0-7.29 5.45-4.13 7s6.23-5.72 6.23-5.72 1.17 7.62 4.67 4-2.65-5.7-2.65-5.7 6.23-.62 5-4-5.75.42-5.75.42-.83-5.06-3.12-4.67-1 5.33-.36 5.72-5.16-2.83-5.36-.79.14 3.63 5.47 3.74z" fill="#fff"/><circle cx="594.61" cy="291.05" fill="#fffe73" r="1.68"/><path d="m637.12 325.29c.58 0-4.78 3.57-2.71 4.58s4.13-3.75 4.13-3.75.76 5 3.12 2.66-1.73-3.74-1.73-3.74 4.13-.42 3.27-2.66-3.77.28-3.77.28-.55-3.33-2-3-.64 3.49-.23 3.74-3.38-1.85-3.52-.51-.05 2.32 3.44 2.4z" fill="#fff"/><circle cx="638.41" cy="324.07" fill="#fffe73" r="1.11"/><path d="m653.07 296.46c.4.72-7.79-3.29-7.57 0s7.57 2.34 7.57 2.34-5.58 4.53-1 5.67 3.32-4.81 3.32-4.81 3.49 4.67 5.64 2.07-3.12-4.41-3.12-4.41 3.68-3.12 2.23-4.67-4.67 1.73-4.67 2.4-.17-5.47-1.9-4.67-2.92 1.73-.5 6.08z" fill="#fff"/><circle cx="655.08" cy="297.28" fill="#fffe73" r="1.57"/><path d="m592.63 385.82a19.34 19.34 0 0 1 .16 2.32" fill="none" stroke="#fff" stroke-miterlimit="10"/><path d="m589.41 406.94c.53 1.42.76 2.2.76 2.2" fill="none" stroke="#fff" stroke-miterlimit="10"/><path d="m10.55 193.52c.55 1-10.92-4.55-10.54 0s10.54 3.26 10.54 3.26-7.77 6.32-1.46 7.9 4.64-6.68 4.64-6.68 4.84 6.62 7.81 2.91-4.26-6.15-4.26-6.15 5.11-4.26 3.11-6.5-6.59 2.42-6.62 3.35-.22-7.63-2.64-6.5-3.97 2.39-.58 8.41z" fill="#fff"/><path d="m175.25 121.35c-6.16 25.6-7.27 53.41-23.16 75-19.14 25.92-54.85 36.2-78.13 58.86-30.22 29.59-33.12 80.26-6.38 112.65 14.68 17.84 35.92 29.49 54.51 43.75 35.7 27.59 62.38 66 103.31 86.35 44 21.82 101.29 17.83 141.36-10 36.6-25.39 58.2-67.46 97.48-89 19.47-10.7 42.32-15.74 61.11-27.59 29.56-18.68 45.33-53.92 41.28-87.08s-26.74-63.29-57.52-80.19c-17.56-9.57-39-16.45-48.32-33.43-7.72-14.06-4.7-30.84-7.27-46.43a67.38 67.38 0 0 0 -23.42-40c-26.86-22.25-67-22.56-102.41-17.73s-70.41.95-103.66 3.44c-29.18 2.4-42.28 24.55-48.78 51.4z" fill="#e25b45" opacity=".4"/><path d="m338.21 142.63c10.37 1.1 21 2.68 29.65 8.54a50.24 50.24 0 0 1 9.88 9.15 108.91 108.91 0 0 1 25.62 56.49c2.32 17.57.37 35.51 2.81 53 1.34 10.24 4.52 20.62 11.59 28.18 6.83 7.2 16.6 10.86 26 14.28a4.82 4.82 0 0 1 2.93 2c.73 1.34 0 3-.73 4.39l-12.81 23.74a5 5 0 0 1 -2.08 2.44c-1.34.86-3.17.37-4.63-.12-12.94-4-26.36-8.42-36.12-17.69-15.37-14.64-18.3-37.7-20.26-58.81-1.58 20.74-3.17 41.36-4.88 62.1a9.59 9.59 0 0 1 -1.18 4.88c-1.46 2.2-4.51 2.81-7.19 3.18a672.19 672.19 0 0 1 -79.8 6.1c-6.35.12-13.79-.49-17-5.86-1.71-2.68-1.83-6.1-1.83-9.27-.61-21.11-1.1-42.22-1.71-63.45-4.39 11.23-8.91 22.82-16.59 32.21-17.33 21.36-47 27.94-74.31 31a208.86 208.86 0 0 0 -6.47-25.74c5.62.12 10.86-2.93 15.62-6 12.93-8.42 25.38-17.94 35.26-29.89s17-26.48 18.3-41.85c.74-7.93-.12-15.87-.61-23.8-1.22-22.81 4-48.8 28.19-57.46 9.52-3.42 22-2.45 31.85-2.93a317.29 317.29 0 0 1 50.5 1.19z" fill="#e25b45"/><path d="m446.55 313.85a2.77 2.77 0 0 0 -1.69-1.13 3.28 3.28 0 0 0 -2.28.87c-8.38 6.14-14.22 15.82-14 25.9a7.67 7.67 0 0 0 1.11 4.35c1.5 2.1 4.66 2.67 7.18 1.85a13.12 13.12 0 0 0 6.07-4.79 28.68 28.68 0 0 0 5.62-13.15c.65-4.21.87-10.38-2.01-13.9z" fill="url(#h)"/><path d="m157.83 304.32a2 2 0 0 1 1.24-.87 2.33 2.33 0 0 1 1.67.67c6.13 4.71 10.39 12.13 10.23 19.86a6.09 6.09 0 0 1 -.81 3.34 4.62 4.62 0 0 1 -5.25 1.42 9.72 9.72 0 0 1 -4.44-3.67 22.67 22.67 0 0 1 -4.11-10.07c-.47-3.23-.63-8 1.47-10.68z" fill="url(#i)"/><path d="m247.43 33.3c-6.71 13.79-8.17 29.65-6.59 44.9s6.1 30 10.49 44.78a7.19 7.19 0 0 0 1.84 3.42c1.22 1 2.8.85 4.39.85l13.79-.73a4 4 0 0 0 2.07-.49 3.74 3.74 0 0 0 1-2.56c.24-3.05.48-6 .73-9-1.34 3.3.61 7.2 3.54 9.15s6.71 2.44 10.25 2.44a66.76 66.76 0 0 0 18.42-2.19c.61-3.54 1.22-7.08 1.83-10.74-1 5.12 3.78 9.88 8.91 11s10.37-.49 15.25-2.07a33.72 33.72 0 0 0 1-14.4c-1.09 4 2.08 8.42 6.11 9.64s8.41-.25 11.83-2.69a8.17 8.17 0 0 0 3.66-6.22 111.89 111.89 0 0 0 -3.9-62.39c-4.64-12.93-11.84-25.13-22.21-34-27.99-23.84-67.16-9.81-82.41 21.3z" fill="#3f3d56"/><path d="m326 144.79a12.59 12.59 0 0 0 -.24 3.47c-13.43 15.83-30 6.58-37.11 1.27a29.74 29.74 0 0 0 .71-6.12c1.38-10.53 2.34-18.11.76-22.38.24-.24.48-.61.73-.85 4.39 3.66 9.51 6.34 15 6.46 6.46 0 12.2-3.66 16.59-8.54.38 13.63 3.82 25.59 3.56 26.69z" fill="url(#j)"/><path d="m289.89 121.15.11-.15c0-.09 0 0-.11.15z" fill="url(#k)"/><path d="m335.77 73.69c-.37 14.15-2.44 28.79-10.37 40.63a45.32 45.32 0 0 1 -2.93 3.78c-4.39 4.88-10.13 8.54-16.59 8.54-5.62 0-10.74-2.8-15-6.46-.12-.13-.25-.13-.37-.25l-.49 1a10.05 10.05 0 0 0 -2.44-3.66 77.11 77.11 0 0 1 -20.87-37.73c-3.17-13.91-6.1-26.36 4.76-38 6-6.35 14-10.25 22.45-12.45 7-1.83 14.52-2.56 21.23-.12 8.3 3 14.4 10.5 17.45 18.79s3.29 17.14 3.17 25.93z" fill="url(#l)"/><path d="m461.69 426.43a41.9 41.9 0 0 1 -22.82 9.88c-80.53 7.57-68.69-7.93-123.36-6.71-2.68.06-5.32.2-7.9.41-50.92 4-86.07 33.72-132 13.75-10.51-4.54-12.73-17.72-11.26-30.59a74.79 74.79 0 0 1 3.82-16.39c5.61-15.62 17.94-28.31 32-37.33a166.38 166.38 0 0 1 29.45-14.65c7.32-2.92 14.76-6.58 22.69-7.32 23.06-2.32 46.73-1.83 69.79-2.68 13.42-.61 26.85-1.1 40.15-1.59a55.38 55.38 0 0 1 12.69.61 42.55 42.55 0 0 1 9.88 3.91 345.29 345.29 0 0 1 72.11 47.7c6 5.13 12.08 11 13.66 18.79 1.59 8.18-2.59 16.84-8.9 22.21z" fill="#e25b45"/><path d="m421.39 406.93-22.92-1.93a5.77 5.77 0 0 0 -3.9.6 11.18 11.18 0 0 0 -1.9 2.35c-2.57 3.21-7.46 2.93-11.2 4.63-3.1 1.41-5.33 4.15-7.45 6.81-3.1 3.88-6.33 8.07-6.8 13 4 .82 2.69 2.62 6.67 3.43-21.8-2-44.09-8.47-66.87-6 17.07-6.36 26.51-11.59 70.42-26.34 6.27-2.11-5.26-11.07 1-13.26s12.76-2.07 19.25-2c9.35.16 18.75.32 28 1.83 5.21.85 14.17 4 12.29 11-1.8 6.79-11.45 6.31-16.59 5.88z" fill="url(#m)"/><path d="m379.33 401.66-69.11 26.66-2.6 1.69c-50.92 4-86.07 33.72-132 13.75-10.51-4.54-12.73-17.72-11.26-30.59 14.47 21.89 38.74 15.15 38.74 15.15 7.52 4.13 166.21-37.78 166.21-37.78-.68 3.67 8.48 6 8.48 6z" fill="url(#n)"/><path d="m221.62 380.09c7-2.37 14.25-9.28 21.55-10.38 4.24-.64 8.29-2.17 12.47-3.14a47.5 47.5 0 0 1 26.66 1.61c2.89 1 5.68 2.37 8.64 3.2a44.54 44.54 0 0 0 12.46 1.29c21.38-.18 37.66-3.65 56.15-14.39 1.28-.75 2.69-1.55 4.16-1.35a13.07 13.07 0 0 1 3.2 1.38c4 1.77 8.54-.68 12.91-1.26 5.12-.68 10.19 1.27 15 3.25 6.37 2.65 18.14 11.53 24.39 14.41 2.32 1.06 4.88 2.42 5.6 4.87-1.85 1.64-4.56 1.71-7 1.69l-28.81-.19c-5.07 0-10.23-.09-15.07-1.63-3.57-1.14-6.86-3.07-10.49-4-4.2-1.12-8.64-.91-13-.55a220.65 220.65 0 0 0 -57.44 12.55 59.88 59.88 0 0 1 -10.59 3.23c-4.46.73-9 .32-13.52 0q-17.57-1.36-35.2-1.25c-3.85 0-12.54 2.76-16 .59-5.14-3.26.22-8.69 3.93-9.93z" fill="url(#o)"/><path d="m301.73 431.54a450.06 450.06 0 0 1 73.57-27.21c1.59-.49 3.54-1.1 4-2.69a4.66 4.66 0 0 0 -.12-2.56c-1.71-7.08-5.49-13.42-9.28-19.64-2.56-4.15-5.12-5.86-10.12-5.25a409.36 409.36 0 0 0 -74.43 16.47" fill="none" stroke="#fff" stroke-miterlimit="10" stroke-width="1.68"/><path d="m381.77 395.44a64.74 64.74 0 0 1 52.46 5.49c2 1.22 4 2.56 6.35 2.68s5-1.34 5.12-3.66c.12-2.07-1.83-3.78-3.66-4.75a21.06 21.06 0 0 0 -9-2.44c-2.44-7.81-10.25-12.69-17.81-16s-15.74-6.22-21-12.57c-1.46-1.7-2.93-3.9-5.12-4.14-1.71-.25-3.3.73-4.64 1.7-5.12 3.91-8.29 10.25-14.15 12.94-1.83 3.54-3 7.56-2 11.34a16.28 16.28 0 0 0 7.07 9.28 7.68 7.68 0 0 0 6.38.13z" fill="url(#p)"/><path d="m280.37 378.6c-2.8-1-5.85 0-8.78.73a48.47 48.47 0 0 1 -10.25 1.21c-3.9 0-7.93-.48-11.84.13a41.52 41.52 0 0 0 -8.41 2.68 154 154 0 0 1 -23.31 6.59c-2.56.49-5.73 1.46-6.22 4s2.32 4.75 4.88 4.88 5.12-.86 7.69-1.22a30.7 30.7 0 0 1 8.17.36 293.53 293.53 0 0 0 29.41 1.34 32.21 32.21 0 0 0 6.83-.48c3-.74 5.73-2.69 8.54-4.15s10.86-3.3 12.08-6.59c1.1-3.62-5.86-8.54-8.79-9.48z" fill="url(#q)"/><path d="m293.92 59.78a5.07 5.07 0 0 0 1.34 2.68 5.42 5.42 0 0 0 3.42.74l16.1-.37c2.44 0 5-.12 7.2-1.34s3.78-3.66 3-6.1c.12 2.19.12 4.51.25 6.71 5.85.49 11.71 1.1 17.69 1.58-1.29-11.34-3.74-22.68-9.1-32.68s-14-18.66-24.89-22.08a35.83 35.83 0 0 0 -31.85 5.64c-6.1 4.64-10.49 11.11-14.15 17.69-4.4 7.69-8.18 16.48-8.06 25.51.25 12.07 4.52 11 14.28 11.83 4.76.37 12.2 4.39 16.84 2.69 7-2.45 5.37-12.69 6.34-18.67.49 2.02.73 4.46 1.59 6.17z" fill="#3f3d56"/><path d="m268.62 30.13c9-6.47 20.26-9.52 31.48-10a29.1 29.1 0 0 1 10.25 1.09 34.13 34.13 0 0 1 8.17 4.78 81.87 81.87 0 0 1 11.84 9.64 40.58 40.58 0 0 1 11.26 29.65c1.7-2.2 2.19-5 2.44-7.81a46.33 46.33 0 0 0 -51.24-49.8 56.3 56.3 0 0 0 -19.28 6 42 42 0 0 0 -7.08 4.27c-6.71 5-11.22 12.57-13.42 20.5-1.34 4.76-2.44 10.37-1.71 15.25 3.06-2 4.15-8.66 6.11-11.84a46.37 46.37 0 0 1 11.18-11.73z" fill="#e25b45"/><path d="m163 311.29c-3.17-2.2-15.82-5.65-19.24-7.48-5.61-2.93-11.35-4.52-17.57-1.83-5.49 2.44-9.64 7.93-9.88 13.91-.13 3.41.73 7.32-1.35 10.12a9.9 9.9 0 0 1 -3.9 2.81 62.24 62.24 0 0 1 -13.06 4.72 12.67 12.67 0 0 0 -4.75 2c-1.35 1.1-2 3.3-1 4.64s2.56 1.34 4 1.34a48.93 48.93 0 0 0 15.75-2.61 47.94 47.94 0 0 0 -13.06 11.22c3.17 1.47 7 .61 10.37-.24a189.53 189.53 0 0 0 41.69-16.47c9.31-4.97 23.18-14.42 12-22.13zm-25.92 5.71a3.35 3.35 0 0 1 -1.46 2.21 4.54 4.54 0 0 1 -1.92.55 4.44 4.44 0 0 1 -1.85 0 4.69 4.69 0 0 1 -1.49-.94 6.48 6.48 0 0 1 -1.93-2.14 5.29 5.29 0 0 1 -.34-2.53 6.23 6.23 0 0 1 1.31-3.73c1.13-1.28 2.36-1.14 3.79-.7s2.71.67 3.44 2.21a7.25 7.25 0 0 1 .51 2.4 8.79 8.79 0 0 1 -.06 2.67z" fill="url(#r)"/><path d="m518.79 338.22c-11.35.61-24.16.73-32.33-7.08-5.37-5-7.81-12.57-13.55-17a17.28 17.28 0 0 0 -15.37-2.81c-4.17 1.29-8.67 4.28-10.2 8.24a3.91 3.91 0 0 1 -4 2.56c-6 1-6.08 4.53-8.77 7.21s-2.3 9-1 12.5c.86 2.19 2.93 3.53 5 4.75a87.78 87.78 0 0 0 43.07 11.84 3.07 3.07 0 0 0 2.32-.61c1-1 .12-2.81-1.1-3.66s-2.69-1.59-3.18-2.93a41.66 41.66 0 0 0 25.75 3.42v-3.42a29.94 29.94 0 0 1 -13.18-4.64 63.59 63.59 0 0 0 23.43-3 5.67 5.67 0 0 0 3.42-2c.9-.93.9-2.76-.31-3.37zm-51.28-11.22a4.4 4.4 0 0 1 -3.54 2.2 9.22 9.22 0 0 1 -4.22-.81 3.36 3.36 0 0 1 -2.39-4.45 6.2 6.2 0 0 1 1.3-3.3 5.25 5.25 0 0 1 1.75-1.18c1.86-.84 4.23-1 5.79.33a5.94 5.94 0 0 1 1.78 4.77 6.17 6.17 0 0 1 -.47 2.44z" fill="url(#s)"/><path d="m591.39 568.94c-.12.67-.27 1.35-.45 2-.71 2.64-1.92 5.21-4.07 6.77-4 2.93-9.51 1.46-14.27.12-62.47-18.55-128.48-20.83-193.52-18.18s-129.82 10.51-194.85 11.89c-34.53.73-69.06-.37-103.59-1.47-18.18-.61-36.24-1.1-54.42-1.71-4.76-.12-9.88-.36-14.15-2.56s-7.69-7-6.59-11.71c.73-3.17 3.29-5.62 5.85-7.69 11-8.61 24.71-12.81 37.73-18.2a114.15 114.15 0 0 0 13.64-6.57c21-12.08 37.58-33.92 61.62-36.72 16.71-2 32.94 6.22 49.78 8s32.94-2.56 49.29-4.15c14.77-1.71 24.28 1.46 38.07 4.27 34 7.08 75.16 1.59 109-4.88 15.74-3 31.36-7 47.22-8.66 19.52-2.08 39.17-.49 58.69 1 23.3 1.71 46.49 3.54 69.79 5.37 3 .25 6.22.49 8.66 2.2 2.08 1.34 3.42 3.54 4.64 5.61 5.73 9.52 11.35 18.91 17.08 28.43 8.46 14.44 17.53 30.25 14.85 46.84z" fill="#e25b45"/><path d="m259.14 206.59c1.83 7.56-.85 15.49-3.17 22.93s-4.51 15.62-1.83 22.94c1 2.57 2.32 4.76 3 7.45s.25 5.73-1.83 7.32" fill="none" stroke="#fff" stroke-miterlimit="10" stroke-width="1.68"/><path d="m367.37 194.85c-4.39 5.61 19.4 25.38 1.46 76.62" fill="none" stroke="#fff" stroke-miterlimit="10" stroke-width="1.68"/><path d="m234.38 267.34a96.9 96.9 0 0 1 -12 16.72c-11.17 12-26.68 19.09-42.42 23.67-5.66 1.65-12.75 4.74-12.33 10.63.27 3.72 3.88 6.49 7.55 7.09s7.4-.44 11-1.47l16.44-4.77c11.23-3.25 22.85-6.71 31.62-14.43 8-7.09 12.88-17.09 16.76-27.08 2.8-7.23 5.23-15 3.76-22.62-.7-3.63-2.27-7.05-3-10.68-.8-4-.3-8.38.26-12.35-6.72 10.78-10.94 24.04-17.64 35.29z" fill="url(#t)"/><path d="m390 297.27a78.67 78.67 0 0 0 30 33.59c2.4 1.47 5.23 3.46 5 6.26-.22 2.11-2.33 3.63-4.44 3.87a12.49 12.49 0 0 1 -6.16-1.33 73 73 0 0 1 -38.57-38.42c-6.08-14.36-8.83-34.76-2.25-49.42 5.16 2.07 6.77 15.72 8.21 20.91 2.3 8.27 4.59 16.69 8.21 24.54z" fill="url(#u)"/><path d="m270.62 294.61a151.54 151.54 0 0 0 4.52 18c1.78 6.08 3.78 12.48 8.51 16.69 3.47 3.09 8 4.61 12.51 5.83a10.84 10.84 0 0 1 4 1.7 3.52 3.52 0 0 1 1.31 3.9c-.79 1.86-3.29 2.1-5.31 2a208.79 208.79 0 0 1 -33.35-4 6 6 0 0 1 -2.28-.8c-1.71-1.19-1.74-3.67-1.59-5.75 1.13-15.21 2-30.23.88-45.47-.19-2.71.49-11.42 5.43-10.07 4.37 1.27 4.75 14.44 5.37 17.97z" fill="url(#v)"/><path d="m321.62 342.24q32.18-.26 64.32-2c-1.66-3.62-5.78-5.42-9.68-6.18s-8.3-2-12.11-1c-4.57 1.2-9 3.35-13.62 4.59-9.34 2.59-19.3 4.51-28.91 4.59z" fill="url(#w)"/><path d="m237.55 165.7s16 20.62 39.85 0l3.21 5s-12.6 19.47-30 12.6-17-14.16-17-14.16z" fill="#e25b45"/><path d="m288.55 147.7s16 20.62 39.85 0l3.21 5s-12.6 19.47-30 12.6-17-14.16-17-14.16z" fill="url(#x)"/><path d="m590.94 571c-.71 2.64-1.92 5.21-4.07 6.77-4 2.93-9.51 1.46-14.27.12-62.47-18.59-128.48-20.89-193.52-18.22s-129.82 10.49-194.85 11.87c-34.53.73-69.06-.37-103.59-1.47-18.18-.61-36.24-1.1-54.42-1.71-4.76-.12-9.88-.36-14.15-2.56s-7.69-7-6.59-11.71c.73-3.17 3.29-5.62 5.85-7.69 11-8.61 24.71-12.81 37.73-18.2a297.21 297.21 0 0 1 -31.26 24.92c169.65 34.17 347.52-30.32 517.28 3.27 15 3 37.64 3.82 51.18 10.8a13 13 0 0 1 4.68 3.81z" fill="url(#y)"/><path d="m190.21 498.75c-3.33 1.31-6.78 2.69-9.18 5.34s-3.38 7-1.23 9.81 6.2 3.1 9.78 3.1l162.32 1.11a179.08 179.08 0 0 0 21-.69c18.89-2.12 36.52-10.2 53.77-18.18 2.16-1 4.57-2.29 5.1-4.61.81-3.59-3.34-6.19-6.85-7.26-22.23-6.81-46.08-1.71-69.06 1.76a477.22 477.22 0 0 1 -86.78 5.07q-21.75-.72-43.37-3.4c-14.09-1.72-22.39 2.82-35.5 7.95z" fill="url(#z)"/></svg>