<svg height="512pt" viewBox="0 0 512.06574 512" width="512pt" xmlns="http://www.w3.org/2000/svg"><path d="m120.046875 280.09375h272v192h-272zm0 0" fill="#00c3ff"/><path d="m440.046875 152.09375c-.003906-31.550781-18.558594-60.15625-47.367187-73.027344-28.808594-12.871094-62.492188-7.605468-86 13.445313-17.207032-55.535157-71.75-90.746094-129.445313-83.5625-57.695313 7.179687-101.941406 54.6875-105.011719 112.746093-40.242187 8.171876-67.765625 45.488282-63.683594 86.351563 4.082032 40.863281 38.441407 72 79.507813 72.046875h352c35.347656 0 64-28.652344 64-64 0-35.34375-28.652344-64-64-64zm0 0" fill="#91e8ed"/><path d="m400.046875 136.09375c0 13.257812-10.746094 24-24 24s-24-10.742188-24-24c0-13.253906 10.746094-24 24-24s24 10.746094 24 24zm0 0" fill="#ffea00"/><path d="m88.046875 200.09375c0 13.257812-10.746094 24-24 24s-24-10.742188-24-24c0-13.253906 10.746094-24 24-24s24 10.746094 24 24zm0 0" fill="#ffea00"/><path d="m192.046875 80.09375c0 13.257812-10.746094 24-24 24s-24-10.742188-24-24c0-13.253906 10.746094-24 24-24s24 10.746094 24 24zm0 0" fill="#ffea00"/><g fill="#fff"><path d="m176.046875 432.09375h16v16h-16zm0 0"/><path d="m208.046875 432.09375h16v16h-16zm0 0"/><path d="m240.046875 432.09375h16v16h-16zm0 0"/><path d="m144.046875 432.09375h16v16h-16zm0 0"/><path d="m176.046875 368.09375h16v16h-16zm0 0"/><path d="m208.046875 368.09375h16v16h-16zm0 0"/><path d="m240.046875 368.09375h16v16h-16zm0 0"/><path d="m144.046875 368.09375h16v16h-16zm0 0"/><path d="m176.046875 304.09375h16v16h-16zm0 0"/><path d="m144.046875 304.09375h16v16h-16zm0 0"/><path d="m208.046875 304.09375h16v16h-16zm0 0"/><path d="m240.046875 304.09375h16v16h-16zm0 0"/></g><path d="m128.046875 496.09375h48v16h-48zm0 0"/><path d="m336.046875 496.09375h48v16h-48zm0 0"/><path d="m272.046875 432.09375h96v16h-96zm0 0"/><path d="m272.046875 368.09375h96v16h-96zm0 0"/><path d="m272.046875 304.09375h96v16h-96zm0 0"/><path d="m447.71875 144.503906c-2.695312-31.148437-21.714844-58.527344-49.960938-71.925781-28.25-13.398437-61.484374-10.800781-87.308593 6.820313-22.320313-54.332032-78.75-86.503907-136.875-78.027344-58.121094 8.476562-103.015625 55.425781-108.886719 113.867187-42.488281 11.675781-69.796875 52.976563-63.894531 96.640625 5.902343 43.667969 43.191406 76.242188 87.253906 76.214844h24v192h288v-192h40c38.28125.011719 69.875-29.933594 71.917969-68.15625 2.039062-38.226562-26.183594-71.363281-64.246094-75.433594zm-63.671875 319.589844h-256v-48h256zm0-64h-256v-48h256zm0-64h-256v-48h256zm56-64h-104v-92.316406l21.039063-18.082032c13.023437 9.621094 31.167968 8.050782 42.34375-3.660156 11.179687-11.714844 11.898437-29.914062 1.679687-42.46875-10.21875-12.558594-28.183594-15.554687-41.921875-6.992187-13.742188 8.5625-18.964844 26.007812-12.195312 40.714843l-26.945313 23.125v99.679688h-64v-73.535156l-16-40v-86.464844h-41.136719c-4.027344-15.601562-19.027344-25.773438-35.015625-23.742188-15.984375 2.03125-27.964843 15.628907-27.964843 31.742188 0 16.117188 11.980468 29.714844 27.964843 31.746094 15.988281 2.03125 30.988281-8.140625 35.015625-23.746094h25.136719v73.539062l16 40v70.460938h-64v-128h-58.808594l-36.222656 28.976562c-13.917969-8.957031-32.328125-6.148437-42.933594 6.558594-10.609375 12.707032-10.085937 31.324219 1.214844 43.417969 11.300781 12.089844 29.839844 13.871094 43.234375 4.144531 13.390625-9.722656 17.441406-27.902344 9.445312-42.390625l30.878907-24.707031h37.191406v112h-72c-37.007813.027344-68.007813-28.011719-71.6875-64.835938-3.683594-36.824218 21.152344-70.441406 57.433594-77.746093l6.085937-1.222657.335938-6.195312c2.882812-54.179688 44.183594-98.5 98.027344-105.195312 53.84375-6.691407 104.738281 26.171874 120.796874 77.996093l3.695313 11.914063 9.3125-8.3125c21.15625-18.921875 51.449219-23.648438 77.363281-12.074219 25.914063 11.574219 42.613282 37.292969 42.636719 65.671875v8h8c30.929687 0 56 25.074219 56 56 0 30.929688-25.070313 56-56 56zm-80-136c0-8.835938 7.164063-16 16-16s16 7.164062 16 16c0 8.839844-7.164063 16-16 16s-16-7.160156-16-16zm-176-56c0 8.839844-7.164063 16-16 16s-16-7.160156-16-16c0-8.835938 7.164063-16 16-16s16 7.164062 16 16zm-104 120c0 8.839844-7.164063 16-16 16s-16-7.160156-16-16c0-8.835938 7.164063-16 16-16s16 7.164062 16 16zm0 0"/></svg>