<svg height="50" preserveAspectRatio="xMidYMid meet" viewBox="0 0 1280 640" xmlns="http://www.w3.org/2000/svg"><g fill="#555" transform="matrix(.1 0 0 -.1 0 640)"><path d="m3593 4990c-85-22-137-48-218-105-165-118-245-257-229-400 7-68 34-138 67-173 82-88 294-117 468-63 139 44 281 166 347 299 33 68 37 84 37 151 0 64-5 85-29 130-39 75-111 144-171 164-64 22-181 21-272-3z"/><path d="m2222 3861c-242-61-426-241-538-526-17-44-35-90-38-102l-7-22 53 18c184 63 320 19 348-113 27-133-39-306-225-587-137-207-226-269-290-205-84 84-144 298-235 844-67 396-98 496-187 588-62 64-123 88-218 89-69 0-89-4-147-32-122-58-206-122-526-407-139-124-209-193-204-200 56-74 124-156 129-156 3 0 47 26 97 59 113 73 126 77 172 55 44-21 86-75 130-170 49-104 71-176 204-664 127-469 147-529 212-650 99-186 206-270 343-270 281 0 611 264 1040 830 204 269 362 534 445 745 26 65 33 73 101 122 97 69 126 79 174 59 25-11 40-26 50-50 26-61 18-130-35-321-218-782-244-992-147-1180 34-67 98-129 166-163 53-26 63-27 201-26 192 0 296 27 494 125 122 61 326 206 390 278 11 11 22 21 26 21s17-27 29-59c81-222 272-335 585-348 134-6 139-5 132 13-37 92-49 473-21 659 47 314 200 672 364 857 105 118 238 128 315 24 19-25 21-41 21-169-1-120-5-160-29-257-65-272-77-343-83-500-4-121-2-172 10-232 53-253 220-370 565-397 143-11 196-6 187 18-55 142-59 438-9 659 63 275 282 692 447 850 130 124 238 135 298 29 22-39 24-52 23-172-1-136-5-166-88-525-143-616-39-880 345-880 264 0 542 113 797 322 40 33 74 59 75 57 79-132 184-232 309-293 144-71 222-87 431-93 336-10 650 47 989 179 134 52 386 176 502 247 37 23 69 41 71 39 1-2 23-37 49-78 84-133 213-247 347-309 261-121 649-129 964-19 100 34 265 124 356 192 167 126 340 330 439 517 208 396 238 894 74 1223-116 232-304 379-549 431-270 57-634 7-908-124-400-191-758-621-851-1024-21-90-37-258-34-356l3-84-95-39c-303-124-569-190-834-207-216-14-329 14-422 104l-49 48 110 23c370 78 671 229 931 465 248 226 354 418 354 638 0 204-92 372-247 454-115 60-196 78-378 84-280 9-500-37-740-157-184-92-303-178-455-330-244-243-390-481-457-744-21-84-26-129-29-271l-3-170-63-34c-57-30-69-33-123-28-121 10-149 46-148 192 0 73 11 141 61 365 83 370 93 432 99 595 4 108 1 156-11 208-60 253-245 368-547 336-114-11-210-39-311-89-145-72-234-142-413-327-66-67-126-123-133-123-8 0-12 21-12 68 0 91-22 188-59 258-34 66-59 96-113 137-186 142-602 93-902-107-100-66-234-190-297-273-23-32-46-62-49-66-4-4-7 39-7 95 0 113-13 184-50 268-56 129-153 212-260 226-118 14-187-36-668-480-82-76-151-143-152-150-2-6 30-47 71-91l73-80 69 46c135 90 176 100 197 50 19-45 5-206-49-555-54-357-34-313-194-420-102-68-143-86-197-86-99 0-166 77-179 208-6 60 66 512 141 882 62 303 44 459-66 584-74 85-225 118-341 76-108-39-242-137-460-335l-83-76-7 53c-27 201-107 325-246 379-81 31-285 37-390 10zm9719-554c71-47 119-189 126-372 6-136-10-251-52-380-62-188-198-408-311-500-116-94-271-140-371-110-101 30-176 155-198 331-15 117 33 373 98 523 146 337 367 528 613 530 48 1 68-4 95-22zm-2409-68c58-31 78-159 38-246-92-205-353-437-626-557-75-33-79-34-86-16-9 25 7 168 28 239 20 72 80 192 141 284 62 93 204 235 270 270 85 45 180 55 235 26z"/></g></svg>