<svg height="70" preserveAspectRatio="xMidYMid meet" viewBox="0 0 1280 640" xmlns="http://www.w3.org/2000/svg"><g fill="#555" transform="matrix(.1 0 0 -.1 0 640)"><path d="m12037 4278c5-73 8-415 8-759v-627l50-6c28-3 88-8 135-12l85-6 48 208c127 545 213 885 268 1063 33 106 58 195 55 198-5 6-180 26-401 48-88 8-181 18-208 21l-47 6z"/><path d="m23 4262c-21-3-23-9-23-72 0-38 4-71 8-74 5-3 111-19 235-36 125-17 237-34 249-39 80-31 698-759 949-1119l44-63 5-285c3-156 2-298-1-315-16-76-88-99-339-108l-174-6-13-74c-7-41-11-76-9-78 1-2 376 0 833 4l831 6 4 76c3 42 3 79 1 84-2 4-118 7-257 7-187 0-256 3-268 12s-21 53-34 155c-15 122-16 168-7 325 7 140 14 191 28 218 51 102 509 499 854 740 126 88 122 87 375 139l179 37 53 75 53 76-226 6c-124 4-455 7-735 7h-508v-21c0-12 5-50 12-85 11-62 12-64 42-64 32 0 238-29 358-50l67-12-20-39c-28-56-145-168-379-362-113-93-225-189-250-213l-45-43-145 190c-80 105-220 289-311 410-223 294-301 406-284 413 7 2 78 10 156 16 277 22 351 29 355 33 8 8 24 121 18 126-6 6-1644 9-1681 3z"/><path d="m10441 4119c-429-48-788-227-951-475-120-183-128-399-23-614 108-221 472-449 808-506 150-26 452-23 609 5 497 89 853 376 906 733 12 83 6 134-30 267-83 299-348 507-735 577-107 19-459 27-584 13zm365-220c323-36 538-174 605-390 25-80 25-256 1-350-51-195-221-344-460-405-285-72-612-48-823 62-93 48-205 156-242 234-82 170-76 382 14 525 149 238 511 368 905 324z"/><path d="m6147 4034c-14-84-11-92 36-98 136-17 276-37 302-44l30-9-4-284c-2-156-7-288-12-293-4-5-255-11-563-14l-554-5 4 144c3 79 10 174 15 210l10 66 52 6c29 4 115 11 192 18 77 6 142 13 144 15 2 1 5 31 8 66l5 63-591-3-591-2v-53c0-28 4-57 8-63 4-7 71-16 167-23 88-7 172-14 186-17l27-5 7-147c7-139 1-889-7-897-2-2-84-12-183-21-99-10-183-20-186-23-4-3-10-41-14-83l-7-78h580 579l7 76c4 42 5 78 3 80-2 3-76 11-163 19-245 23-219 10-233 113-6 49-11 138-11 200v111l43 5c81 11 1067 59 1074 53 8-9 6-448-2-456-6-5-86-15-180-23l-170-13 4-70c2-39 5-72 7-74s212-4 466-5l463-1 3 48c5 79-10 93-110 101-46 4-99 9-119 12l-35 6-12 386c-25 773-25 836-11 853 14 16 220 69 266 69 28 0 31 5 34 63l3 48-480 6-481 5z"/><path d="m8065 3831c-465-54-801-269-898-576-18-57-22-93-22-190 1-254 82-380 317-496 225-111 447-159 738-159 397 1 682 92 870 280 154 155 211 356 165 588-24 118-72 207-154 285-150 141-297 215-505 253-94 18-408 26-511 15zm465-207c215-44 351-176 381-372 17-116-3-299-42-379-79-164-295-259-620-270-264-10-448 47-585 182-159 156-191 410-74 580 150 218 569 333 940 259z"/><path d="m3370 3519c0-69 6-75 98-104 48-16 90-30 94-32 12-6-303-622-443-865l-44-76-100-26c-55-14-115-29-132-32-31-6-35-11-57-83-13-42-23-77-23-77 1-1 178 1 393 4l392 5 7 63c4 35 6 67 6 71 0 5-39 16-88 25-142 28-132 23-124 60 13 54 48 127 95 193 43 60 47 62 98 69 29 3 134 9 233 13l181 6 107-233c59-128 106-234 104-236-2-3-67-14-145-26l-141-22-6-46c-4-25-9-57-11-72l-6-28h466 466v65c0 44-4 67-12 69-7 2-42 9-78 16-189 35-198 39-227 87-39 68-128 266-258 578-164 395-206 505-192 510 39 13 139 35 160 35 32 0 43 15 52 68l7 42h-330c-181 0-377 3-435 7l-107 6zm463-419c41-113 78-213 82-222 7-17-6-18-185-18s-192 1-185 18c3 9 49 115 102 235 62 140 99 214 104 205 4-8 41-106 82-218z"/><path d="m11980 2478c0-126 3-158 14-158 7 0 73-5 145-11 73-6 135-8 138-5 9 8 51 295 45 301-3 3-37 5-76 5-39 1-115 7-168 14l-98 12z"/><path d="m12585 2591c-58-24-103-109-89-168 18-78 75-123 157-123 118 0 188 141 117 240-37 51-124 75-185 51zm152-55c28-30 33-43 33-86s-5-55-34-88c-32-34-38-37-91-37-51 0-59 3-85 32-82 92-18 233 100 220 35-4 51-13 77-41z"/><path d="m12590 2450c0-75 3-90 16-90 12 0 15 9 12 37-4 53 21 54 50 3 12-22 29-40 38-40 16 0 14 6-18 52-18 26-18 27 2 33 28 9 37 51 15 75-13 15-31 20-67 20h-48zm88 61c8-5 12-17 10-27-2-14-13-20-40-22-35-3-37-2-33 25 2 15 4 29 4 31 2 6 47 1 59-7z"/></g></svg>